<svg id="Layer_1" data-name="Layer 1" xmlns="http://www.w3.org/2000/svg" viewBox="0 0 1619.12 801"><defs><style>.cls-1{fill:#a37d53;}</style></defs><title>west_africa_map</title><polygon class="cls-1" points="1439.61 457.6 1440.39 457.8 1448.24 464.94 1449.67 465.86 1518.78 488.94 1520.63 489.85 1537.45 489.85 1505.97 520.26 1494.33 532.18 1471.44 557.1 1451.31 555.95 1450.37 555.97 1439.87 558.37 1433.5 561.02 1428.56 563.53 1425.51 565.73 1422.83 569.19 1421.89 571.18 1421.05 571.66 1411.41 573.42 1408.4 573.68 1402.2 575.53 1399.08 578.57 1398.75 578.92 1396.74 578.87 1390.38 579.27 1387.93 579.65 1387 579.71 1385.04 579.7 1383.89 579.43 1378.37 574.58 1374.42 571.54 1374.41 571.55 1374.34 571.49 1366.99 574.44 1354.53 580 1349.67 582.72 1348.13 585.59 1345.29 589.34 1343.28 591.17 1337.79 590.71 1335.71 590.24 1331.75 589.74 1326.8 588.87 1323.52 587.94 1314.02 587.39 1311.54 586.86 1308.62 584.85 1284.38 569.41 1284.01 569.18 1284.01 569.18 1283.92 569.12 1281.73 568.39 1263.25 567.76 1262.88 567.64 1261.74 565.46 1259.66 563 1258.31 561.28 1258.21 559.2 1258.65 556.2 1259.39 554.41 1258.97 552.65 1259.08 550.36 1256.72 547.05 1256.66 547.03 1256.63 546.99 1248.41 544.76 1246.73 544.99 1247.72 537.71 1243.34 542 1243.19 541.87 1241.69 540.19 1240.59 537.98 1239.76 536.54 1239.19 532.17 1237.59 529.2 1236.26 526.11 1234.07 519.54 1232.88 516.68 1229.08 513.57 1227.06 510.52 1221.94 507.9 1217.54 503.34 1217.15 502.52 1216.89 500.64 1215.52 498.5 1213.31 496.19 1206.87 491.72 1202.37 490.61 1199.71 490.27 1196.05 489.46 1193.35 488.28 1197.74 479.27 1199.52 479.13 1202.33 479.21 1204.98 479.48 1208.58 479.51 1213.45 479.15 1215.74 477.48 1217.37 475.88 1218.71 473.78 1218.95 470.58 1218.35 452.9 1218.41 450.94 1219.3 446.18 1220.08 443.63 1223.11 437.38 1223.79 435.29 1224.02 432.83 1223.18 426.87 1224.26 424.77 1225.95 422.26 1226.89 421.56 1231.3 424.44 1234.26 423.57 1236.29 421.97 1238.7 419.34 1238.5 416.15 1239.55 411.35 1239.36 408.73 1240.35 405.67 1241.62 400.62 1242.11 397.9 1242.45 397.11 1245.36 394.14 1248.75 388.62 1250.47 385.3 1253.83 379.79 1255.12 378.25 1255.75 377.86 1265.42 376.21 1266.56 374.17 1267.12 372.14 1267.23 369.17 1267.73 365.17 1268.84 361.3 1270.11 358.42 1271.69 355.75 1272.99 352.87 1274.6 346.75 1274.52 343.25 1275.82 338.8 1277.64 338.13 1279.83 338 1282.4 338.71 1285.71 339.1 1288.09 338.02 1289.4 336.35 1290.08 335.06 1290.67 335.56 1294.68 341.35 1296.05 341.8 1297.44 342.26 1300.39 341.58 1306.64 327.18 1308.54 328.18 1310.78 328.91 1310.83 328.92 1310.83 328.92 1311.38 329.03 1311.43 329.04 1314.9 333.1 1317.4 335.15 1317.44 335.15 1317.44 335.15 1317.85 335.18 1320.48 335.34 1320.5 335.33 1320.52 335.33 1328.71 333.75 1333.2 331.13 1334.94 333.77 1334.96 333.77 1334.97 333.78 1338.65 334.25 1343.53 333.07 1344.72 332.71 1348.06 333.45 1349.37 333.5 1352.84 335 1357.38 334.48 1358.6 334.53 1359.64 334.86 1366.49 339.63 1366.5 339.63 1366.51 339.64 1372.68 341.84 1373.21 342.19 1375.65 344.91 1379.92 350.77 1384.21 355.12 1385.94 356.87 1388.48 358.73 1392.36 361.59 1395.22 364.29 1399.84 371.85 1402.81 373.82 1404.39 374.73 1406.04 376.74 1407.74 379.18 1408.36 379.91 1400.78 391.09 1396.68 395.43 1395.68 396.92 1394.73 400.06 1394.59 405.31 1395.55 417.75 1399.23 418.98 1402.41 419.57 1405.1 418.78 1407.65 418.26 1410.86 417.94 1415.34 416.76 1416.98 416.15 1418.11 416.18 1419.23 416.66 1419.79 417.1 1419.61 417.39 1418.92 418.22 1415.93 423.01 1415.65 424.95 1416.24 426.49 1417.79 428.78 1418.94 431.22 1419.65 433.67 1420.68 436 1422.65 437.73 1424.79 440.45 1426.51 443.21 1428.8 444.16 1429.23 445.44 1431.42 449.75 1433.8 453.18 1436.58 456.4 1439.61 457.6"/><polygon class="cls-1" points="1218.32 590.57 1220.59 591.33 1219.73 595.22 1221.28 603.2 1221.34 603.24 1221.34 603.24 1223.25 604.34 1224.81 608.9 1224.86 608.92 1224.87 608.95 1228.33 611.07 1230.18 616 1230.23 616.03 1230.23 616.04 1231.47 616.96 1231.6 617.34 1231.17 618.5 1232.04 623.74 1233.22 627.75 1233.51 631.93 1233.52 633.89 1233.33 636.08 1232.54 636.94 1230.92 639.17 1230.03 640.73 1228.72 642.5 1229.09 644.48 1227.72 644.99 1226.07 645.94 1224.15 647.47 1222.17 649.59 1220.48 653.73 1218.02 656.55 1217.39 657.63 1214.79 659.51 1213.29 662.55 1212.41 665.72 1211.66 667.22 1209.09 670.51 1208.45 676.05 1208.53 685.03 1207.95 695.47 1207.96 696.39 1138.81 696.39 1137.9 696.14 1135.02 696.67 1133.3 697.76 1132.53 697.94 1131.15 697.83 1130.11 697.87 1130.05 697.89 1128.09 697.8 1125.59 698.35 1124.02 699.86 1122.75 701.73 1121.12 703.41 1119.96 704.78 1118.99 705.73 1117.78 706.57 1117.52 705.81 1115.11 703.99 1111.47 704.86 1111.47 704.83 1111.25 699.34 1111.77 697.69 1112.26 694.79 1112.34 692.56 1113.34 688.62 1112.97 686.26 1114.05 679.29 1114.37 678.03 1114.82 674.62 1115.81 673.95 1116.96 670.93 1118.56 667.43 1120.13 664.87 1119.83 659.98 1119.91 658.74 1120.88 658.34 1125.4 654.85 1126.84 651.63 1127.85 650.6 1131.53 649.35 1143.2 638.26 1148.48 632.43 1151.28 628.81 1151.4 627.21 1152.23 624.58 1150.24 622.21 1149.41 621.42 1148.86 620.08 1146.23 618.81 1145.35 618.82 1144.79 618.1 1142.43 616.1 1139.07 616.17 1139.72 613.77 1141.65 609.53 1141.86 607.35 1141.44 605.86 1140.74 604.41 1139.77 603.27 1140 602.17 1140.92 599.91 1143.31 596.01 1142.63 592.67 1142.67 592.62 1145.13 590.58 1146.73 589.65 1147.03 589.65 1149.47 590.51 1152.93 592.11 1155.63 592.22 1158.05 591.53 1160.73 590.04 1162.41 593.18 1165.71 594.61 1166.72 595.24 1169.45 596.08 1171.94 595.08 1173.15 592.69 1175.12 591.36 1179.17 590.47 1182.53 590.15 1186.64 589.26 1189.45 587.91 1192.28 589.8 1197.24 590.4 1202.24 590.38 1204.19 589.13 1211.93 581.61 1213.92 585.81 1213.46 586.79 1213.52 586.84 1213.52 586.84 1215.43 588.33 1218.24 590.52 1218.26 590.53 1218.32 590.57"/><polygon class="cls-1" points="797.21 592.59 795.29 599.12 794.61 600.63 794.72 602.63 794.22 607.66 794.34 608.54 791.95 613.16 791.6 612.44 791.03 610.64 791.6 609.03 790.72 605.83 788.82 603.53 787.86 602.53 787.08 601.28 785.44 599.92 783.53 599.67 782.76 599.42 775.86 592.29 768.27 583.8 767.86 583.06 768.94 582.39 769.05 579.16 767.7 576.6 767.23 574.19 765.66 571.07 762.19 568.04 759.3 566 759.02 565.68 757.69 555.76 757.06 552.33 755.48 550.32 755.92 548.4 755.92 548.28 756.69 547.01 756.69 536.15 755.83 535.25 754.21 532.98 752.71 533.09 756.77 531.1 758.76 529.72 759.64 528.44 762.15 522.46 764.59 518.64 766.04 517.54 769.28 510.11 770.05 508.14 770.41 506.92 770.76 506.41 773.99 504.11 775.76 501.26 778.62 501.87 783.03 502.3 786.93 501.19 788.7 499.62 797.92 496.67 798.35 495.17 799.95 497.01 804.15 500.7 807.38 500.07 809.17 498.18 812.63 497.28 814.22 496.6 817.69 493.77 820.63 492.41 822.81 491.77 826.1 490.24 828.15 490.42 832.8 490.11 839.7 489.3 845.04 489 848.23 488.6 850.35 487.42 851.51 484.49 853.12 483.57 857.57 479.22 860.44 475.47 860.65 475.14 861.02 474.99 864.04 471.11 861.27 467.41 859.45 466.16 859.89 465.89 861.34 465.58 867.25 465.67 872.24 465.39 873.62 465.47 878.13 464.7 880.88 464.09 883.72 462.79 890.33 462.94 896.21 459.04 897.46 458.53 899.56 456.99 899.66 456.72 901.17 455.87 904.81 452.27 907.4 449.2 907.97 447.46 912.52 442.75 914.34 442.85 916.78 441.03 919.22 436.79 921.76 435.94 923.46 434.17 925.34 431 925.35 427.54 925.01 426.2 929.28 424.09 931.19 422.49 931.47 422.2 933.33 422.33 935.1 421.11 936.14 420.13 938.59 419.06 940.81 418.25 945.16 419.04 947.17 419.68 948.15 421.42 949.19 422.83 956.25 430.06 960.68 436.4 962.64 439.6 964.8 444.04 964.95 445.83 964.21 454.13 963.9 455.07 960.61 458.88 960.32 462.29 961.72 465.21 962.33 465.57 962.02 468.31 964.58 471.11 967.58 472.16 973.91 472.85 976.74 473.26 977.88 473.56 977.28 475.77 978.45 479.6 981.44 482.41 983.99 483.42 992.76 485.11 994.58 485.96 997.8 489.59 1002.29 493.3 1002.63 493.9 1000.94 496.69 1001.65 499.66 1004.46 502.58 1006.87 504.81 1011.98 507.78 1019.39 511.56 1022.2 513.65 1023.08 515.1 1025.4 517.74 1028.45 519.99 1028.71 520.21 1027.77 523.36 1028.38 525.61 1029.36 527.53 1030.89 529.28 1031.32 530.73 1033.56 534.74 1036.63 536.73 1039.67 537.17 1044.53 540.33 1047.57 542.02 1048.54 542.87 1049.58 544.42 1049.75 545.03 1049.82 547.52 1050.21 550.11 1048.69 550.05 1046.49 550.71 1042.97 553.24 1039.23 552.83 1028.47 550.82 1020.22 548.9 1017.7 548.2 1011.95 547.3 1007.29 549.4 1004.15 554.56 1001.28 555.48 999.31 555.13 994.37 556.36 986.74 554.5 983.39 554.96 980.54 556.07 971.81 559.24 967.85 560.32 963.88 562.04 961.85 562.75 960.52 562.75 956.2 561.17 952.17 560.84 948.09 561.46 944.91 563.71 943.24 565.59 940.82 569.31 938.17 574.87 938.05 574.99 927.28 572.51 921.16 571.74 917.96 572.52 914.38 571.25 910.83 570.68 910.13 571.06 909.11 570.77 905.32 568.96 900.32 567.84 897 568.1 896.26 567.88 895.3 566.83 893.25 563.63 888.68 559.55 882.99 556.56 880 554.71 878.35 553 874.65 552.02 869.05 551.76 864.33 553.26 856.95 558.26 851.16 567.24 848.75 569.8 845.47 570.92 844.08 575.53 845.54 579.44 845.8 582.51 845.17 587.22 840.61 588.44 838.25 589.49 835.71 588.76 833.91 589.03 832.9 589.02 831.66 588.82 831.37 588.86 824.09 586.64 822.53 585.77 819.75 585.92 816.17 587.64 809.94 588.91 804.52 589.38 801.68 589.42 799.07 590.66 797.21 592.59"/><polygon class="cls-1" points="777.26 434.45 774.5 431.76 771.76 428.62 770.22 425.99 768.77 422.53 767.34 417.9 766.49 412.11 766.61 409.04 766.99 406.99 768.9 401.93 767.7 399.1 767.86 397.69 767.7 394.51 764.92 387.15 762.84 383.48 762.04 377.85 759.3 372.86 755.74 370.91 754.79 369.79 754.04 365.6 751.32 363.46 745.56 361.95 742.08 361.83 734.18 350.79 732.5 348.44 729.23 334.11 732.99 329.01 737.07 320.58 750.11 301.79 776.93 272.71 783.17 197.63 783.68 196.26 787.92 188.38 788.89 185.45 787.39 182.92 780.84 175.56 779.28 174.27 778.94 173.16 780.88 170.7 771.96 156.84 770.18 155.47 769.86 145.94 767.83 132.82 765.63 120.34 785.97 110.51 972.66 209.02 972.74 297.49 969.83 296.96 966.49 296.89 962.89 297.7 958.2 298.08 953.93 297.91 950.74 300.53 947.66 304.33 948.65 310.68 948.54 311.68 948.22 312.57 945.83 314.75 944.49 316.28 943.07 319.1 941.74 320.87 941.85 323.13 940.62 323.45 938.09 324.58 934.23 328.44 935.84 332.62 936.55 337.15 937.38 337.97 935.1 339.3 930.97 342.31 929.31 344.4 928.2 346.82 928.24 349.76 929.55 352.84 930.69 354.94 931.18 357.29 931.13 358.12 930.89 358.69 930.44 359.25 926.39 361.78 924.08 364.97 922.23 368.75 921.42 372.06 922.32 374.61 923.97 376.6 926.28 377.61 928.93 377.85 933.88 376.99 934.92 377.43 935.29 378.12 934.82 379.79 936.08 384.08 936.94 388.09 936.84 390.27 938.65 392.71 939.33 392.82 938.84 399.36 939.9 402.16 941.53 404.48 944.61 406.75 945.91 408.09 947.68 408.28 947.92 408.48 948.02 408.87 947.95 409.9 947.1 413.19 946.75 413.09 944.01 412.5 940.15 411.94 936.31 413.34 932.57 414.96 931.54 416.02 930.97 415.98 928.04 416.39 926.76 418.2 926.15 418.76 921.98 420.81 920.38 422.05 918.72 424.23 918.72 426.09 919.18 428.3 919.18 429.39 918.74 430.19 918.34 430.61 915.99 431.21 914.62 432.62 912.25 436.56 910.06 436.43 902.55 444.2 901.91 446.15 900.23 448.15 897.76 450.73 894.68 452.46 894.43 453.11 893.6 453.45 888.54 456.74 882.35 456.6 879.18 458.15 873.27 459.28 872.24 459.22 867.13 459.51 860.74 459.41 857.56 460.09 854.74 461.84 852.59 463.4 851.22 465.78 851.76 466.88 851.55 468.23 851.55 468.23 851.55 468.23 855.87 471.18 853.03 475.04 849.7 478.43 848.14 479.32 846.29 480.93 845.58 482.72 839.18 483.16 832.24 483.98 828.23 484.24 824.99 483.95 814.71 488.35 811.26 491.18 805.91 492.66 805.18 493.43 803.04 491.17 802.45 489.77 801.88 486.12 797.6 487.17 795.64 488.43 793.3 490.38 792.9 491.8 785.58 494.15 783.89 495.65 782.45 496.06 779.83 495.82 778.76 495.57 779.02 492.8 778.51 489.51 775.85 488.5 771.54 477.88 768.12 471.89 763.94 467.52 761.39 465.34 758.85 464.06 753.73 459.96 749.22 455.99 748.21 454.41 745.48 451.11 742.63 447.97 741.84 447.2 741.82 447.1 744.53 443.49 745.83 442.5 747.76 442.42 753 443.18 758.88 443.46 764.71 442.85 766.23 442.47 770 443.16 776.19 442.99 784.73 439.41 777.26 434.45"/><polygon class="cls-1" points="721.5 347.76 718.45 350.11 716.94 350.52 715.61 350.88 715.6 350.89 715.59 350.89 715.23 351.06 710.86 353.16 710.72 353.25 710.57 353.32 708.12 354.86 705.62 356.17 701.08 360.27 700.41 361.72 699.01 361.92 695.55 361.62 692.85 359.44 685.34 356.7 680.17 355.5 678.05 355.19 666.79 354.71 655.13 355.74 648.83 357.01 648.83 357.01 648.78 357.02 647.72 357.28 643.84 359.02 640.76 360.92 633.68 368.26 625.44 368.04 620.13 367.25 615.57 366.12 609.17 362.77 600.15 356.87 596.07 355.93 592.75 355.44 590.75 355.59 590.73 355.61 590.72 355.61 580.71 361.07 579.16 360.97 576.4 361.69 575.53 361.92 573.61 363.59 573.27 363.79 573.18 363.8 572.49 363.67 571.72 363.26 570.67 362.21 566.48 356.05 565.41 354.75 560.5 349.94 558 348.26 555.26 347.35 555.24 347.36 555.23 347.35 553.79 347.57 537.36 342.47 537.34 342.48 537.32 342.47 534.75 342.95 532.84 343.69 530.1 345.47 527.73 345.72 523.96 345.59 521.21 345.28 521.2 345.28 521.17 345.28 516.99 346 513.86 346.94 510.58 348.25 505.9 351.97 502.39 353.79 500.81 364.66 499.86 367.06 498.06 370.28 494.38 373.49 490.3 376.62 489.97 386.05 489.93 389.58 490.06 391.11 489.81 391.65 488.01 391.07 487.56 390.72 487.13 389.82 483.66 385.86 476.6 379.25 473.12 378.49 473.12 378.49 473.12 378.49 469.93 379.75 468.8 380.75 464.67 381.63 461.84 382.73 462.45 382.2 462.76 379.59 462.32 377.36 460.81 374.18 458.65 371.47 456.71 370.66 454.52 370.58 452.06 370.93 449.15 372.98 448.93 373.05 446.92 372.94 445.07 372.67 434.28 363.97 433.12 363.66 433 362.56 433.02 361.73 435.67 362.06 440.13 357.86 435.37 354.34 433.33 353.23 432.57 351.62 431.43 350.51 429.78 349.4 427.85 348.72 426.94 348.33 425.73 347.54 423.4 347.09 419.66 341.65 418.58 339.54 418.44 339.1 419.22 336.04 417.83 333.89 415.13 330.94 413.95 329.53 414.7 323.91 414.73 322.33 414.85 321.77 416.84 321.79 423.93 322.41 429.68 321.7 431.24 321.19 438.88 314.58 480.74 312.86 480.97 311.14 492.62 313.07 493.26 307.96 496.37 305.27 499.08 304.43 500.27 303.14 501.43 301.35 502.35 298.18 502.4 297.86 502.45 297.55 503.24 296.54 504.16 293.58 504.96 290.22 507.22 286.59 509.03 280.23 509.34 274.33 509.54 271.35 510.38 270.43 510.22 218.52 543.81 211.74 546.75 210.31 574.67 185.04 586.17 175.04 691.31 108.48 725.53 116.75 727.65 117.94 742.21 130.87 745.09 131.4 759.91 123.33 761.76 133.83 763.7 146.26 763.84 154.16 763.96 157 765.45 159.6 767.36 161.07 773.32 170.33 772.08 171.88 773.97 177.92 776.44 179.88 782.11 186.17 778.16 193.52 777.25 195.87 770.96 270.1 745.44 297.77 731.86 317.28 727.82 325.65 725.08 329.49 722.53 332.48 725.78 346.71 725.35 346.71 721.76 347.7 721.5 347.76"/><polygon class="cls-1" points="439.57 401.29 437.51 402.69 435.84 405.61 435.74 405.64 434.33 405.59 430.93 406.74 430.93 408.77 430.45 409 430.14 409.77 428.75 409.22 427.26 412.07 425.76 412.04 425.73 412.18 421.96 412.33 420.5 412.67 411.23 410.31 405.86 409.21 397.53 407.35 397.49 407.5 395.33 407.06 397.14 408.78 396.9 409.67 395.15 409.29 394 411.14 393.2 412.33 392.17 412.83 391.74 412.32 388.55 412.03 385.73 412.25 384.87 412 382.15 411.68 377.61 411.98 370.08 411.35 367.76 411.99 344.54 412.22 344.54 412.05 337.64 411.93 336.84 413.88 334.88 420.72 334.56 425.34 335.72 428.02 336.69 429.45 336.94 432.65 337.72 433.41 337.56 433.74 337.73 437.14 338.49 441.44 338.5 443 337.89 444.04 335.57 442.61 334.13 440.43 331.1 438.18 328.77 438.65 322.02 437.7 322.01 437.7 322.01 437.7 316.8 437.88 314.07 438.51 311.38 439.51 306.38 441.38 304.28 442.33 303.52 442.67 302.54 444.15 302.54 444.15 300.69 442.52 300.56 442.39 300.55 442.39 300.54 442.39 298.83 442.56 297.61 442.68 296.53 442.2 294.29 440.14 292.94 439.58 292.49 439.4 291.7 438.84 291.25 436.65 289.96 434.73 289.75 434.42 288.31 431.14 286.58 429.97 285.81 429.43 285.79 429.42 285.78 429.42 285.16 429.2 282.4 428.21 280.29 428.31 279.91 428.33 279.28 427.97 279.77 426.43 280 423.83 280.46 420.6 280.17 416.44 279.98 415.38 282.16 414.19 283.72 411.69 285.24 406.83 285.91 402.25 285.37 400.32 284.64 398.85 284.33 397.88 284.17 396.8 284.81 395.9 286.07 394.99 286.69 394.68 293.69 393.18 296.62 391.92 298.67 390.67 300.43 389.18 301.39 387.49 302.55 386.5 304.8 384.05 305.02 379.05 305.01 375.97 309.59 373.73 309.68 369.21 308.65 366.36 307.63 364.6 309.59 362.64 310.47 361.64 312.03 360.43 313.02 360.24 314.08 360.57 320.75 364.97 323.13 365.55 325.76 364.92 327.69 363.65 331.05 362.31 332.42 357.5 332.35 353.96 334.09 354.33 336.03 354.46 338.35 353.89 340.74 351.65 340.67 348.88 340.57 347.98 341.43 345.18 343.15 342.92 347.18 339.61 347.97 339.19 348.41 339.09 356.93 341.77 360.57 340.03 362.46 333.98 365.02 333.82 367.55 333.13 372.89 330.03 379.35 326.9 383.04 325.48 387.17 322.18 390.15 319.89 391.48 319.56 393.86 319.41 394.19 319.49 394.41 319.8 396.77 321.23 401.19 319.97 405.96 321.48 408.57 322.41 407.48 331.41 410.53 335.03 412.57 337.21 412.05 339.25 412.76 341.6 414.27 344.64 419.6 352.44 422.53 353.22 423.41 353.38 425.59 354.46 426.87 354.85 427.37 355.16 427.71 355.76 427.05 358.11 426.84 362.81 427.32 367.35 429.28 369 431.43 369.58 440.45 376.99 442.85 378.57 446.3 379.07 449.65 379.26 451.86 378.61 454.4 376.82 454.86 376.75 455.03 376.76 456.09 378.47 453.65 379.35 452.38 382.07 453.06 384.36 459.85 393.94 458.53 396.63 457.6 397.67 452.96 401.63 450.96 401.22 446.09 402.03 445.5 401.29 442.44 400.96 439.57 401.29"/><polygon class="cls-1" points="267.3 426.7 264.21 428.61 263.86 430.05 262.96 430.74 263.08 428.96 261.97 425.54 262.15 424.76 261.59 421.29 261.1 419.68 258.67 418.3 258.65 418.31 258.65 418.31 257.33 418.71 255.19 419.36 253.74 419.65 253.73 419.66 253.72 419.66 251.73 420.9 251.59 421.39 248.7 419.1 247.63 420.19 245.54 422.32 244.93 426.87 245.02 427.35 244.35 427.44 242.69 427.64 240.22 427.8 240.22 427.8 240.21 427.8 238.37 430.52 238.27 430.9 235.96 430.39 234.62 430.1 234.03 427.86 233.99 427.86 233.98 427.82 232.27 427.76 230.42 425.23 230.41 425.23 230.4 425.21 227.21 425.48 226.72 425.74 223.89 425.55 220.82 428.55 219.81 430.09 219.76 430.17 219.18 429 213.62 426.1 212.92 423.67 212.44 420.8 212.48 419.54 212.89 417.65 212.6 415.2 211.28 412.98 209.01 411.63 207.43 411.1 209.12 409.95 210.54 407.94 210.72 405.65 209.69 403.35 207.35 402.37 204.67 400.56 203.65 400.42 202.72 398.32 201.13 396.86 200.65 396.75 200.72 392.1 198.22 387.17 197.35 384.38 196.21 381.48 194.39 378.92 192.08 377.48 189.22 376.4 186.07 376.01 184.12 376.36 180.73 377.89 180.95 381.32 181.6 382.27 177.85 383.87 175.43 385.26 174.53 386.88 166.6 383.75 163.04 382.57 156.62 385.09 153.38 389.03 151.47 385.74 148.73 382.96 144.94 382.83 142.26 384.47 140.58 386.51 139.59 387.38 137.61 385.75 138.09 384.62 139.38 384.87 139.59 382.62 143.04 379.31 139.95 378.7 140.01 378.04 138.33 376.67 139.13 372.45 139.06 371.15 139.96 367.39 138.37 365.53 138.14 364.69 136.66 362.87 135.76 361.51 135.57 360.5 134.97 358.74 132.78 355.26 130.83 354.62 126.94 354 125.59 352.54 124.05 350.55 125.1 349.51 125.78 347.91 126.23 345.07 125.21 342.92 124.83 342.31 124.96 340.87 124.71 336.48 123.03 334.11 121.78 332.66 120.35 331.38 119.97 330.78 120.69 327.73 121.83 326.65 123.38 325.53 125.82 323.09 128.11 319.48 128.95 315.7 129.29 312.84 129.87 310.9 130.48 309.53 131.97 307.95 134.09 306.32 139.84 311.78 143.47 314.91 145.6 317.58 150.08 317.64 150.08 317.63 150.12 317.63 152.8 313.11 154.43 310.82 155.13 310.76 157.86 310.54 157.9 310.54 159.55 310.59 165.93 311.85 171.13 312.17 171.14 312.17 171.16 312.17 176.06 311.42 179.66 310.66 180.11 310.57 185.49 309.67 185.49 309.67 185.53 309.67 185.61 308.96 189.12 309.16 278.61 309.16 278.61 309.15 278.63 309.15 283.01 285.85 276.28 278.44 253.83 70.05 285.77 70.03 290.63 70.03 431.36 168.69 431.55 169.92 431.37 172 431.43 175.09 433.12 177.18 435.68 179.11 442.77 182.86 442.88 183.51 444.34 187.03 446.6 188.69 449.01 189.88 451.8 190.67 458.45 191.32 458.86 191.58 461.99 195.44 464.27 196.47 469.58 197.75 472.71 198.3 476.64 199.48 479.36 200.87 479.74 201.21 479.71 205.96 480.42 208.55 480.67 209.19 479.8 210.32 479.42 211.51 478.72 212.54 477.25 215.52 478.21 219.01 480.42 220.31 482.2 221.67 485.02 222.9 486.59 222.97 487.64 222.93 504.05 219.73 504.21 268.06 503.54 268.79 502.99 278.99 501.75 283.72 499.2 287.82 498.23 291.95 497.7 293.61 496.6 295.01 495.93 298.54 495.62 299.05 493.3 299.77 487.45 304.85 487.31 305.94 479.56 304.67 477.43 304.85 475.35 306.7 475.32 306.89 456.27 307.58 436.49 308.54 428.18 315.68 423.82 316.22 417.14 315.64 413.19 315.6 410.26 316.47 410.22 316.46 407.93 315.64 401.29 313.54 398.19 314.42 397.91 314.01 394.35 313.21 390.82 313.43 387.43 314.21 383.24 317.43 380.82 319.6 376.91 321.25 370.06 324.55 366.01 327.06 364.35 327.68 362.11 327.77 357.58 328.94 355.71 334.93 348.66 332.71 346.19 333.27 344.02 334.31 338.95 338.38 335.87 342.33 334.27 347.48 334.36 348.09 330.82 347.33 327.23 348.41 326.16 352.45 326.24 356.69 325.95 357.7 325.11 358.04 323.26 359.18 323.19 359.2 317.11 355.19 313.36 353.89 309.41 354.66 306.46 356.96 303.48 360 300.73 363.14 301.61 366.35 302.97 368.76 303.38 369.91 296.42 373.32 298.26 377.09 298.86 377.97 298.86 378.92 298.74 381.56 296.57 383.5 295.58 385.24 293.89 386.39 292.01 387.24 285.12 388.71 283.1 389.58 280.94 391.1 278.52 393.65 277.92 396.64 278.27 399.03 278.87 401.03 279.54 402.34 279.63 402.66 279.26 405.33 278.26 408.79 277.78 409.56 273.18 412.63 274.04 417.06 274.27 420.38 273.88 423.11 273.79 424.87 273.6 425.42 271.59 425.52 267.32 426.69 267.32 426.69 267.3 426.7"/><polygon class="cls-1" points="992.18 465.64 992.29 463.4 994.48 459.78 994.86 458.06 995.01 455.17 995.1 454.75 996.42 453.38 997.76 451.26 998.09 448.41 997.95 445.03 1001.28 441.39 1002.67 439.2 1003.4 436.52 1003.37 434.96 1003.43 434.55 1004.97 434.19 1006.76 434.48 1017.81 432.26 1017.79 433.25 1018.21 435.47 1019.72 437.32 1021.57 438.37 1022.51 439.67 1023.62 440.78 1025.63 442.14 1034.9 452.9 1038.92 454.48 1042.21 453.99 1047.65 451.7 1049.43 451.31 1066.56 451.92 1066.63 451.91 1068.5 455.68 1071.02 458.11 1095.03 458.18 1093.91 453.44 1096.33 451.05 1098.98 449.58 1101.44 448.69 1107.57 447.34 1110.18 444.83 1112.23 441.77 1112.26 439.02 1118.53 435.92 1127.95 441.94 1134.03 447.42 1135.07 448.2 1137.19 448.86 1138.69 447.97 1146.62 447.5 1149.34 446.4 1159.99 435.87 1162.71 432.51 1163.25 431.96 1165.13 429.18 1166.79 425.12 1178.05 415.57 1178.72 414.28 1179.32 411.77 1177.32 407.99 1177.11 407.07 1177.06 405.03 1177.39 401.11 1177.26 398.45 1176.83 396.63 1174.56 393.84 1186.39 393.79 1186.59 390.31 1186.58 389.83 1186.42 388.69 1190.78 388.75 1189.85 391.93 1189.88 395 1189.6 397.64 1188.41 399.77 1188.38 400.95 1190.67 418.34 1190.19 419.21 1189.54 422.48 1190.94 423.55 1196.78 425.96 1198.23 427.73 1208.61 436.32 1209.35 438.14 1209.38 438.31 1209.06 440.32 1209.2 441.46 1209.34 442.08 1208.2 444.35 1207.46 447.23 1207.22 449.74 1207.34 451.06 1207.74 452.67 1209.1 454.5 1210.36 454.91 1212.27 454.92 1212.78 468.81 1212.8 470.36 1212.68 471.86 1211.9 472.65 1211.23 473.14 1208.39 473.36 1205.35 473.34 1202.76 473.07 1199.36 472.96 1195.13 473.3 1192.77 475.38 1188.62 484.18 1187.37 486.3 1186.43 489.45 1187.68 491.93 1189.9 493.44 1193.86 495.23 1198.64 496.34 1201.36 496.68 1203.11 497.03 1204.19 497.35 1209.16 500.75 1210.51 502.1 1210.97 502.82 1211.12 503.85 1212.4 506.89 1218.21 512.92 1222.82 515.27 1224.24 517.41 1227.76 520.4 1230.5 528.28 1232.03 531.86 1233.22 534.08 1233.81 538.56 1236.35 543.3 1238.78 546.18 1238.93 546.33 1209.09 575.6 1209.14 575.7 1201.35 583.49 1201.23 583.6 1200.43 584.22 1197.6 584.23 1194.48 583.86 1189.87 580.77 1184.78 583.38 1183.02 583.84 1178.4 584.35 1172.81 585.56 1170.23 587.12 1168.18 588.85 1168.14 588.94 1166.84 588.38 1166.07 586.93 1164.58 585 1161.44 582.45 1155.96 585.72 1154.89 586.03 1154.4 586 1151.8 584.81 1148.07 583.48 1145.05 583.5 1141.87 585.35 1138.47 587.9 1138.47 587.9 1138.38 587.78 1135.39 586.74 1134.57 586.89 1134.27 585.76 1132.84 583.1 1129.76 581.43 1125.02 579.38 1121.28 575.18 1119.07 572.9 1117.89 571.82 1115.98 568.58 1112.63 565.02 1108.07 563.22 1104.12 564.38 1101.82 567.46 1099.2 569.2 1097.8 568.34 1094.39 567.09 1087.66 566.43 1084.5 568.26 1081.97 570.05 1080.39 570.84 1080.2 570.85 1077.46 570.23 1076.62 570.18 1074.88 569.04 1073.88 568.11 1072.72 566.57 1070.62 565.4 1068.98 564.72 1068.6 564.38 1067.13 561.6 1065.53 559.57 1064.08 558.51 1059.49 553.5 1059.08 552.72 1058.65 552.59 1057.65 551.5 1056.39 549.79 1055.97 547.15 1055.9 544.48 1055.4 542.38 1054.35 540.36 1053.21 538.86 1051.41 537.18 1047.64 535.02 1044.41 533.03 1042.12 531.3 1038.85 530.83 1038.14 530.37 1037.12 528.63 1036.38 526.12 1034.54 524.18 1034.23 523.63 1034.18 523.44 1035.78 518.05 1032.21 515.12 1029.74 513.34 1028.2 511.66 1026.85 509.43 1022.86 506.46 1014.89 502.35 1010.79 500.05 1008.78 498.19 1007.87 497.24 1008.58 496.1 1008.97 492.61 1007.08 489.26 1002.24 485.31 998.33 480.91 994.99 479.36 987.74 478.01 986.04 477.61 984.8 477.12 983.86 476.23 983.69 475.68 984.76 471.79 983.99 470.45 991.06 468.1 992.18 465.64"/><polygon class="cls-1" points="1098.6 740.93 1098.25 740.56 1098.25 740.49 1099.5 741.1 1100.33 742.97 1100.31 742.94 1098.6 740.93"/><polygon class="cls-1" points="1134.71 749.88 1134.72 750.65 1133.8 750.94 1131.68 752.22 1129.31 755.03 1129.6 755.5 1126.02 758.7 1125.17 760.9 1124.7 762.57 1122.51 764.69 1120.32 768.49 1119.42 770.52 1115.31 775.06 1111.28 777.57 1110.89 777.85 1107.02 777.77 1106.99 777.63 1106.83 776.57 1105.69 771.74 1103.08 767.04 1102.94 766.09 1103.06 757.61 1102.89 755.25 1103.28 749.97 1103.21 746.82 1101.35 744.26 1103.48 745.14 1110.35 744.77 1111.83 744.83 1114.38 743.99 1117.79 742.07 1118.79 740 1119.54 736.19 1119.59 735.61 1121.2 735.92 1123.23 735.72 1124.73 734.38 1124.92 734.27 1125.34 734.28 1127.43 733.75 1126.35 735.95 1125.02 738.05 1125.04 738.1 1125.04 738.1 1126.15 740.01 1125.44 742.24 1126.02 745.27 1126.04 745.28 1126.05 745.33 1127.41 746.47 1129.64 747.53 1132.04 748.07 1134.26 748.95 1134.71 749.88"/><polygon class="cls-1" points="1127.4 705.78 1127.71 705.42 1127.74 705.46 1127.87 705.72 1131.69 710.7 1133.61 711.41 1134.03 711.92 1134.84 713.56 1135.08 715.74 1134.59 719.43 1135 723.22 1136.09 725.05 1136.23 726.28 1135.85 728.45 1135.84 728.5 1135.5 728.44 1133.6 728.77 1132.06 729.28 1129.04 726.99 1124.63 728.1 1123.28 728.07 1121.17 729.33 1118.74 727.82 1114.06 728.04 1113.44 735.41 1113.05 737.71 1112.14 738.24 1110.95 738.63 1110.22 738.6 1105.81 738.97 1105.3 738.98 1104.25 736.64 1100.95 734.9 1097.38 733.89 1094.92 734.32 1094.83 734.02 1099.59 730.69 1100.8 728.87 1101.44 726.42 1101.02 720.04 1102.1 718.05 1104.87 714.42 1105.48 714.29 1107.49 713.11 1109.34 711.63 1109.35 711.63 1109.36 711.63 1112.77 710.88 1113.14 711.93 1114.96 713.37 1117.28 713.64 1119.42 712.84 1122.73 710.63 1127.4 705.78"/><polygon class="cls-1" points="1433.16 387.43 1432.6 388.27 1431.55 389.22 1426.73 392.29 1420.39 394.6 1417.16 398.31 1411.5 397.72 1413.57 405.57 1417.11 406.2 1419.31 405.78 1422.86 404.47 1425.2 403.98 1427.71 403.95 1428.45 404.09 1423.45 411.93 1419.44 410.05 1415.96 409.97 1413.47 410.9 1410 411.83 1406.89 412.14 1403.62 412.81 1402.06 413.26 1401.36 413.13 1400.74 405.11 1400.78 401.26 1401.19 399.72 1404.42 396.35 1405.7 394.79 1414.28 382.15 1418.28 385.08 1421.03 384.75 1421.11 384.7 1423.97 382.76 1425.53 378.76 1428.32 377.8 1428.37 377.78 1431.5 381.52 1432.51 383.32 1433.47 386.4 1433.16 387.43"/><polygon class="cls-1" points="1329.89 267.88 1332.4 276.46 1334.27 289.4 1336.34 297.16 1339.32 300.52 1341.72 307.97 1344.05 308.3 1346.25 314.03 1351.33 321.42 1354.39 314.31 1355.08 316.08 1358.74 320.41 1361.84 321.67 1365.57 322.11 1367.49 322.66 1368.99 323.54 1373.16 327.18 1381.82 330.07 1388.3 338.32 1392.87 345.15 1406.65 354.64 1408.55 358.27 1410.39 364.88 1414.44 364.59 1418 368.07 1419.75 372.53 1421.93 373.25 1420.34 375.38 1419.17 378.07 1415.98 375.74 1413.38 375.02 1412.69 375.48 1412.65 375.43 1410.97 373.03 1408.45 369.94 1406.06 368.59 1404.36 367.45 1400.33 360.79 1396.46 356.98 1391.92 353.65 1390.13 352.34 1384.77 346.96 1380.55 341.16 1377.55 337.79 1375.75 336.48 1375.74 336.48 1375.73 336.47 1369.61 334.3 1369.48 334.21 1362.58 329.38 1362.46 329.29 1362.45 329.29 1362.44 329.28 1360.04 328.52 1357.15 328.3 1353.76 328.68 1350.99 327.49 1350.65 327.34 1350.65 327.34 1350.63 327.33 1348.88 327.33 1347.27 327.04 1344.66 326.28 1338.51 327.93 1337.72 326.39 1334.88 324.19 1334.86 324.19 1330.97 324.19 1330.95 324.19 1329.77 325.98 1326.48 327.9 1320.08 329.14 1319.73 329.12 1315.96 324.76 1313.6 323.04 1313.57 323.03 1313.56 323.03 1312.77 322.96 1311.17 322.59 1310.43 322.2 1309.43 320.93 1304.32 317.1 1304.25 317.05 1296.99 333.83 1295.54 331.75 1291.73 328.32 1291.71 328.32 1291.68 328.3 1287.77 328.73 1285.23 330.71 1284.33 332.74 1280.46 331.78 1276.81 331.99 1275.99 332.15 1274.22 315.89 1275.7 314 1277.27 310.25 1279.85 301.72 1280.72 300.27 1283.01 295.14 1285.68 286.91 1285.44 282.14 1285.11 278.93 1287.22 274.78 1287.14 272.57 1287.33 271.01 1288.66 271.27 1290.84 270.82 1295.87 270.61 1298.13 267.99 1299.43 263.74 1301.41 262.9 1304.49 260.69 1305.35 260.61 1308.2 259.64 1308.64 259.21 1309.13 259.02 1311.13 259.34 1313.15 258.41 1314.47 258.28 1316.85 256.79 1317.22 255.87 1318.58 254.62 1319.68 253.28 1320.94 250.51 1321.88 249.39 1327.09 259.78 1329.89 267.88"/><polygon class="cls-1" points="1278.63 147.18 1278.76 150.03 1279.88 155.2 1283.86 162.61 1285.28 164.34 1284.88 169.97 1285.65 176.41 1286.84 180.64 1285.99 184.29 1286.13 191.57 1287.75 199.97 1287.42 205.26 1290.19 217.92 1293.12 225.65 1295.25 228.13 1297.79 229.54 1300.66 230.07 1304.46 232.94 1307.71 236.22 1308.84 237.88 1312.09 241.78 1314.02 241.19 1318.37 243.99 1317.64 244.86 1315.97 246.79 1314.89 248.71 1314.41 249.97 1312.07 252.12 1310.21 252.95 1308.73 252.71 1305.55 253.6 1304.79 254.33 1303.39 254.57 1302.08 254.94 1298.59 257.37 1295.84 258.51 1293.97 260.39 1292.67 264.65 1290.5 264.65 1288.6 264.97 1286.27 264.53 1282.59 264.7 1281.57 267.61 1280.93 272.3 1280.98 273.35 1278.78 277.84 1279.28 282.59 1279.45 286.01 1277.55 291.48 1277.22 292.92 1275.32 297.23 1274.35 298.83 1271.42 308.24 1270.54 310.54 1267.79 314.05 1270.19 336.12 1268.34 342.43 1268.42 346.04 1267.25 350.63 1266.39 352.6 1265.45 354.05 1263.12 358.99 1261.74 363.7 1261.1 368.57 1261.04 370.71 1256.23 371.37 1253.7 372.03 1251.44 373.29 1248.96 376 1245.1 382.28 1243.38 385.62 1240.71 390.09 1237.24 393.62 1236.31 395.81 1235.6 399.32 1234.44 403.96 1233.12 407.97 1233.34 410.9 1232.29 415.68 1232.39 417.16 1231.91 417.57 1229.68 415.88 1226.94 414.34 1223.69 416.28 1221.43 417.93 1219.05 421.48 1216.8 425.78 1217.83 433.08 1217.78 433.86 1217.49 434.84 1215.52 438.71 1215.55 438.31 1215.5 437.51 1213.92 433.03 1202.81 423.59 1201.12 421.54 1200.68 421.1 1196.8 419.39 1196.93 418.72 1194.63 401.25 1195.36 399.86 1196.04 395.29 1196.02 392.79 1197.26 388.57 1197.78 382.67 1183.17 382.49 1181.43 382.57 1180.04 384.76 1179.98 385.58 1180.01 386.18 1179.9 387.51 1179.9 387.65 1160.87 387.74 1171.13 399.24 1171.21 401 1170.89 404.85 1170.96 407.53 1171.4 409.74 1172.55 412.16 1162.11 421.01 1159.79 426.09 1158.65 427.86 1155.53 431.61 1145.89 441.15 1145.26 441.41 1138.09 441.73 1137.11 441.9 1131.88 437.19 1118.67 428.7 1117.03 429.7 1109.62 433.43 1108.31 434.23 1106.13 435.9 1106.09 439.95 1105.65 440.64 1104.55 441.69 1099.92 442.71 1097.42 443.59 1097.42 441.44 1088.12 450.44 1087.9 452 1073.53 451.95 1071.16 447.18 1070.54 446.12 1068.66 445.31 1066.15 445.74 1048.86 445.12 1046.01 445.76 1040.9 447.96 1039.65 448.14 1038.57 447.72 1030.01 437.79 1027.63 436.1 1025.78 433.67 1023.97 432.64 1024.03 430.08 1022.5 426.59 1018.92 425.76 1006.64 428.22 1004.94 427.95 1001.88 428.48 999.5 429.5 997.56 432.11 997.2 434.58 997.23 435.92 997.1 436.52 996.6 437.37 993.4 440.67 991.73 443.71 991.91 448.18 991.78 449.3 990.56 450.53 989.29 452.4 988.92 454.18 988.78 457 987.08 460.01 986.19 462.02 986.13 463.19 982.4 464.37 979.2 466.03 978.27 467.29 978.12 467.25 974.64 466.73 969.26 466.22 968.49 465.95 968.8 463.21 967.32 461.54 966.84 461.08 969.36 458.17 970.18 455.72 970.79 448.62 971.15 445.99 970.84 442.38 968.04 436.65 965.88 433.09 962.3 427.77 960.97 426.09 953.97 418.94 952.53 416.5 953.99 411.17 954.23 408.3 953.39 404.96 950.13 402.35 948.78 402.2 947.17 400.95 946.05 400.26 945.5 399.55 945.09 398.46 945.67 390.73 944.39 387.4 943.05 387.18 942.04 382.57 941.23 379.76 941.89 377.41 939.32 372.59 934.71 370.66 928.62 371.63 927.84 371.56 929.24 368.36 930.67 366.37 934.58 363.93 935.97 362.22 937.22 359.53 937.37 357.01 937.05 354.92 936.53 352.94 935.16 350.28 934.38 348.46 934.38 348.02 935.11 346.88 936.66 345.66 942.92 341.82 944.89 339.38 944.11 336.17 942.29 334.16 941.89 331.4 941.41 329.93 942.44 329.34 945.25 328.61 947.54 326.54 948.04 323.55 948 322.79 949.49 319.9 951.29 318.22 953.55 315.92 954.46 313.45 954.87 310.53 954.16 306.03 954.91 305.08 956.03 304.16 958.33 304.25 963.6 303.82 967.14 303.06 968.99 303.07 975.42 304.23 975.42 304.23 975.42 304.23 977.69 302.9 978.41 301.73 978.83 299.76 978.83 299.76 978.9 299.44 978.82 208.08 978.82 197.73 999.14 197.74 1000.03 197.77 1000.81 197.25 1002.52 196.51 1002.54 147.2 1141.97 147.22 1147.24 147.22 1147.24 147.22 1147.48 147.22 1148.34 147.09 1148.3 147.2 1278.63 147.18"/><polygon class="cls-1" points="21.93 272.15 25.14 265.77 28.35 256.68 29.68 247.32 29.27 238.51 28.36 231.1 26.77 225.94 25.17 218.34 22.43 213.67 20.44 212.05 26.88 201.5 22.6 202.77 23.35 201.22 24.88 194.76 24.7 191.4 25.7 188.41 22.17 182.71 19.7 176.24 17.87 174.77 12.59 172.47 8.87 164.99 7.38 164.11 9.2 164.11 101.42 164.02 99.36 131.22 99 129.18 97.82 125.71 97.69 124.88 97.84 124.05 98.32 123.05 99.98 120.71 108.94 114.31 113.86 113.39 121.49 110.15 124.64 108.33 124.92 103.7 124.92 43.96 204.02 43.92 204 12.48 206.28 13.96 273.15 57.77 281.85 63.87 246.97 63.88 246.97 63.88 246.96 63.88 270.35 281.11 276.36 287.73 273.5 302.99 189.35 303 188.26 302.93 187.76 297.66 187.72 297.67 187.72 297.63 183.86 298.77 182.52 299.15 182.5 299.17 182.47 299.18 180.56 301.3 179.54 303.7 179.62 304.4 179.13 304.5 174.94 305.36 170.84 305.98 166.92 305.76 164.31 305.09 160.32 304.46 157.76 304.38 157.75 304.38 157.72 304.38 155.92 304.55 151.85 304.92 151.84 304.93 151.82 304.93 150.29 306.17 147.6 309.75 147.39 310.11 144 307.19 139.43 302.92 136.7 300.13 133.37 299.31 133.35 299.32 133.32 299.32 129.79 301.79 127.91 303.28 125.24 306.07 124.11 308.57 123.25 311.34 122.84 314.54 122.26 317.16 121.09 319.08 119.64 320.59 119.16 320.91 116.46 319.91 114.82 318.76 113.65 316.76 111.21 314.82 107.97 313.43 107.02 312.8 106.53 312.01 104.98 310.47 104.64 308.77 102.5 305.12 99.51 302.6 98.81 302.71 96.53 300.62 95.53 300.4 95.23 299.89 94.42 296.58 93.07 293.21 90.99 290.11 89.12 288.71 88.77 287.72 85 287 84.95 287.02 84.94 287.01 83.8 287.46 83.24 286.65 79.72 286.32 79.69 286.34 79.67 286.34 78.88 286.87 78.48 286.35 78.28 284.66 74.9 281.26 69.11 276.71 62.52 274.5 56.25 274.77 53.92 274.64 53.02 273.88 50 274.09 49.85 274.1 49.5 274.45 48.74 274.08 48.68 274.12 48.68 274.12 45.55 275.93 45.47 276.33 42.02 276.34 38.19 277.02 38.14 277.05 38.13 277.05 35.33 278.32 32.63 278.73 28.59 278.57 26.83 278.28 25.86 277.52 23.17 277.15 19.94 277.91 21.93 272.15"/><polygon class="cls-1" points="9.04 335.95 6.62 330.77 4.04 328.77 1.88 324.83 0 323.57 2.02 322.55 9.65 312.94 11.54 309.81 11.54 313.42 16.05 302.34 16.35 301.83 17.01 299.97 18.25 296.91 18.94 292.04 19.37 290.81 20.01 290.44 21.52 287.65 22.86 284.15 23.38 283.47 24.21 284.11 27.71 284.7 32.92 284.92 36.71 284.34 36.73 284.33 36.77 284.33 39.73 283.01 42.26 282.53 45.99 282.51 50.73 281.45 50.73 281.42 50.79 281.41 50.89 280.89 51.71 280.72 56.16 280.95 61.59 280.73 66.09 282.24 70.61 285.76 72.36 287.52 72.47 288.49 73.69 290.41 76.43 292.99 79.88 293.6 79.92 293.58 79.96 293.58 80.33 293.34 83.99 294.01 84.04 293.99 84.05 293.99 84.8 293.69 85.2 294.19 86.31 294.39 87.46 295.88 88.44 298.28 89.31 301.82 91.56 305.86 93.16 306.21 94.53 308.2 96.82 309.26 97.15 309.21 97.64 309.13 98.72 310.93 98.49 311.52 99.05 314.47 101.19 315.39 102.42 317.18 104.78 318.76 107.7 319.96 108.86 320.88 110.13 323.06 113.21 325.2 114.43 327.23 113.48 332.03 115.38 335.05 117.29 336.88 118.67 338.6 118.79 340.77 118.5 344.04 119.76 345.81 119.84 345.99 118.15 347.56 117.68 352.39 120.89 356.51 121.55 357.23 121.55 357.56 122.4 359.65 125.32 362.82 128.76 361.41 129.13 360.92 129.94 363.87 131.6 366.39 132.53 367.55 132.77 368.48 133.24 369.02 132.87 370.58 132.94 372.01 132.27 375.51 132.08 377.48 132.09 377.57 126.75 378.47 125.03 378.13 121.03 378.27 117.94 378.84 114.88 379.9 113.77 379.77 112.17 378.71 109.78 378.8 108.36 378.45 106.4 377.65 104.56 377.19 102.48 375.6 100.24 374.96 100.26 374.8 97.69 372.7 95.31 372.44 93.31 372.45 90.14 372.14 84.31 371.8 84.32 371.63 81.27 371.62 81.13 371.61 80.13 371.61 78.16 371.5 78.15 371.6 70.42 371.56 45.57 371.44 36.3 376.17 30.84 377.27 23.69 376.8 21.05 377.2 20.66 377.36 19.54 377.77 20.09 375.54 18.4 373.35 16.03 372.35 13.43 369.54 12.14 370.53 12.1 369.72 12.37 367.36 12.31 366.48 12.77 366.14 21.8 366 33.93 366.12 34.45 361.5 45.41 360.19 47.56 358.44 48.42 356.93 50.88 358.16 57.71 361.19 63.24 363.19 68.98 364.25 75.05 362.62 80.8 361.27 82.04 356.81 80.69 353.05 75.93 350.53 71.07 350.74 67.55 351.74 66.99 351.84 66.15 351.67 64.48 350.73 62.71 349.12 57.83 347.75 53.78 344.92 51.12 344.27 48.29 344.03 44.13 344.63 38.7 346.73 37.11 349.5 19.8 349.27 16.3 349.4 16.15 348.79 14.09 345.92 13.19 345.27 14.23 344.75 18.55 337.83 10.93 338.65 9.04 335.95"/><polygon class="cls-1" points="30.2 407.42 30.03 407.22 30.33 407.01 30.2 407.42"/><polygon class="cls-1" points="32.91 404.54 32.77 404.67 32.71 404.2 34.06 404.67 32.91 404.54"/><polygon class="cls-1" points="40.25 389.18 37.8 389.99 34.1 392.53 32.71 392.99 33 392.01 31.34 390.3 28.7 388.62 24.26 389.68 22.75 388.99 22.65 388.86 23.9 387.62 25.33 383.1 31.26 383.49 37.94 382.14 47.05 377.62 78.15 377.76 79.28 379.99 79.2 380.85 78.98 381.53 77.64 381.52 72.94 383.87 72.87 385.66 72.75 388.13 74.86 389.72 75.54 390.59 77.03 391.96 78.02 392.6 78.05 394.82 78.04 395.05 75.2 395.98 71.76 396.25 67.77 396.03 62.71 398.79 59.83 399.64 57.44 399.74 55.8 400.93 55.64 401.12 54.51 402.41 49.84 396.34 48.8 396.09 50.2 395.79 52.69 392.97 51.45 388.66 47.54 388.53 45.77 389.54 40.25 389.18"/><polygon class="cls-1" points="44.92 408.06 46.27 406.77 45.44 404.37 47.66 404.06 54.19 402.83 54.13 402.95 53.76 403.39 51.58 407.77 51.22 408.45 49.04 408.54 49.04 408.47 44.92 408.06"/><polygon class="cls-1" points="86.07 446.73 85.9 446.74 85.87 443.51 84.99 441.94 85.7 436.83 79.77 438.03 79.5 438.39 77.8 437.35 77.13 436.56 76.97 435.23 75.01 431.85 72.16 432.84 71.37 432.83 66.72 430.64 63.27 424.87 63.24 424.42 63.9 421.42 62.61 414.53 59.66 417.28 58.92 414.53 55.87 412.97 58.62 407.33 58.84 406.88 59.66 405.82 60.48 405.78 64.84 404.58 68.27 402.63 69.03 402.26 71.82 402.42 71.83 402.42 71.83 402.42 76.05 402.1 84.03 399.57 84.23 394.89 84.18 391.87 83.75 388.8 81.57 387.53 82.13 387.17 83.27 386.46 84.16 385.17 84.21 385.03 85.18 382.38 85.41 380.37 85.6 378.82 85.59 378.81 85.59 378.81 85.14 377.92 88.33 378.03 93.01 378.6 93.44 378.6 94.68 381.73 98.56 382.71 100.35 381.73 101.89 382.91 104.3 383.45 106.24 384.24 109.16 384.99 110.41 384.94 111.59 385.72 115.6 386.18 119.36 384.84 121.5 384.42 124.53 384.31 126.66 384.74 131.7 383.88 130.63 385.8 131.5 388.7 137.19 393.38 139.91 394.1 142.56 392.99 144.84 390.96 146.35 389.2 149.3 394.26 149.98 395.21 151.83 396.49 154.62 396.43 157.19 394.56 158.13 392.95 160.46 390.11 163.1 389.07 172.71 392.79 175.63 393.4 178.46 392.47 179.98 389.75 182.86 388.32 184.25 387.92 186.57 387.76 188.14 385.32 188.6 383.13 188.5 382.68 190.19 383.56 190.63 384.14 191.54 386.43 192.42 389.25 194.53 393.53 194.42 400.55 196.97 402.07 197.79 402.41 198.8 404.67 201.15 406.3 202.41 406.47 202.92 406.82 198.31 413.05 197.99 415.98 200.38 418.2 202.87 418.43 204.37 418.08 206.23 417.15 206.64 417.39 206.4 418.51 206.26 421.22 206.91 424.96 207.89 428.68 209.47 430.88 214.47 433.49 214.4 433.78 214.3 433.95 213.74 434.42 211.21 436.5 210.2 439.17 210.48 441.77 210.48 446.86 210.74 452.07 210.75 452.09 210.76 452.13 212.84 454.93 215.61 456.54 216.13 456.49 215.58 460.13 215.61 460.14 215.61 460.17 216.72 460.7 215.61 461.85 215.01 465.5 215.2 470.02 215.21 470.02 215.21 470.09 220.29 472.11 220.55 472.42 216.08 471.74 212.92 471.87 210.53 472.26 208.5 474.35 207.76 481.89 207.78 481.91 207.77 481.97 209.86 483.79 212.32 485.14 212.69 485.29 210.8 489.43 211 490.41 211.18 491.64 210.14 493.6 206.09 492.9 205.85 492.07 203.21 491.05 200.53 491.03 197.75 492.73 196.68 495.43 196.59 497.23 194.97 499.27 194.28 500.67 193.45 500.35 192.08 501.75 191.75 501.9 190.65 500.68 188.68 498.8 186.98 498.22 187.65 495.62 187.64 493.73 186.91 490.75 185.85 488.72 185.83 488.63 185.94 487.33 184.56 481.19 184.1 480.83 184.02 480.34 184.16 477.16 181.86 475.06 180.62 474.53 179.85 473.16 177.67 471.97 177.6 471.98 177.34 471.34 174 470.55 172.82 471.51 169.7 472.64 169.39 472.05 165.97 471.1 163.41 472.02 163.02 472.05 160.7 471.66 160.9 469.45 159.18 466.87 158.32 465.21 158.32 463.31 157.79 458.81 155.83 458.41 156.59 455.68 155.96 453.69 154.02 451.67 151.66 448.75 147.32 442.29 145.38 440.49 144.25 439.06 143.22 436.85 139.82 435.9 121.68 436 121.67 436.07 121.64 436.07 121.28 438.19 119.08 438.67 115.88 437.37 111.39 438.33 107.72 440.04 107.71 440.08 107.68 440.1 106.85 442.91 106.28 444.31 105.52 445.12 105.51 445.15 105.47 445.2 105.03 446.42 104.26 447.54 104.24 447.59 104.22 447.61 103.18 449.86 101.85 451.93 100.86 452.88 97.02 454.05 97.01 454.09 96.99 454.1 95.68 457.96 95.28 458.32 94.1 456.18 91.85 453.81 90.57 450.96 86.07 446.73"/><polygon class="cls-1" points="124.93 503.23 114.88 499.42 114.47 499.29 115.4 497.28 113.44 494.24 115.06 489.48 108.89 489.48 107.63 490.59 106.94 490.51 105.26 489 104.07 488.52 103.22 484.71 102.11 481.45 99.25 478.95 98.52 478.87 100.65 476.47 103.05 474.83 104.27 471.7 102.1 465.87 99.22 468.29 101.55 463.34 99.44 462.97 99.99 462.61 100.87 461.29 101.04 461.04 101.82 459.07 104.02 458.4 106.34 456.18 108.5 452.98 108.51 452.96 108.53 452.92 109.39 450.98 110.53 449.21 111.55 447.72 111.55 447.71 111.59 447.65 112.69 444.89 112.83 444.44 115.27 443.87 118.49 445.16 126.67 443.4 126.68 443.33 126.71 443.32 126.9 442.21 138.82 442.14 140.69 444.63 142.43 446.17 146.68 452.47 149.37 455.81 149.95 456.41 148.68 459.45 148.68 459.47 148.66 459.52 148.95 462.36 151.14 463.82 152.14 464.02 152.14 466.78 153.76 469.92 153.99 470.3 152.04 472.33 150.79 475.67 150.4 476.23 148.97 480.1 148.98 480.1 148.94 480.21 152.89 482.32 154.15 482.01 154.64 482.06 153.3 483.4 153.29 483.42 153.29 483.42 151.93 488.51 151.52 490.38 146.79 495.28 144.01 497.01 142.62 498.07 141.98 498.55 141.21 499.34 139.85 500.72 137.59 502.54 135.52 505.09 134.51 506.32 134.34 506.64 133.42 508.25 130.35 505.91 124.93 503.23"/><polygon class="cls-1" points="217.99 566.54 212.09 564.71 191.85 553.98 186.46 549.84 179.84 543.31 165.09 530.06 160.89 527.36 156.41 526.27 154.28 525.35 153.44 524.79 151.91 521.05 147.33 518.33 140.74 515.3 138.07 512.6 139.52 509.92 140.48 508.7 141.72 507.13 143.86 505.41 145.14 504.1 145.92 503.3 146.09 503.16 147.49 502.1 150.37 500.31 150.39 500.3 155.09 495.46 155.4 495.29 156.95 494.47 158.82 486.6 161.96 485.72 162.8 484.85 163.73 483.9 165.02 480.35 165.18 479.63 165.45 478.39 166.1 480.4 173.35 477.9 174.04 479.58 176.33 478.96 177.06 479.72 177.87 480.06 177.84 480.69 178.4 484.19 179.11 484.75 179.74 487.6 179.61 489.13 179.98 490.62 181.09 492.79 181.48 494.18 181.48 494.95 181.26 495.92 180.86 496.83 179.47 498.77 178.97 502.15 182 504.01 184.47 504.23 184.96 504.04 185.46 504.21 186.77 505.74 187.69 506.57 188.75 508.71 192.5 508.18 194.89 507.25 197.65 507.45 199.42 504.33 200.1 502.72 201.1 501.43 202.36 500.17 202.55 498.97 203.47 499.53 203.63 499.66 206.85 509 206.87 509.08 206.8 510.25 206.43 511.27 206.17 513.98 205.15 515.42 198.43 521.98 198.46 522.01 198.45 522.01 201.22 525.1 202.93 525.9 205.29 526.51 205.32 526.5 206.89 528.3 208.72 529.32 211.22 530.22 214.14 530.47 215.46 530.24 216.48 530.38 217.21 530.79 218.21 533.87 218.24 533.89 218.24 533.9 218.63 534.36 218.87 536.27 218.89 536.29 218.89 536.3 222.15 539.06 224.73 539.37 227.31 540.76 227.69 543.12 228.06 544.67 227.49 545.76 227.47 549.26 226.23 551.23 226.06 553.08 224.17 553.97 224.16 557.41 223.83 559.27 223.63 562.07 224.03 568.01 224.05 569.07 217.99 566.54"/><polygon class="cls-1" points="326.02 551.37 316.11 549.66 313.35 547.91 309.19 547.41 303.09 547.63 297.57 548.24 294.14 550.92 290.55 551.44 288.97 549.97 281.02 549.76 278.37 550.66 277.05 552.35 274.54 552.64 265.83 554.56 250.56 560.52 243.52 562.65 241.36 563.55 237.97 565.82 234.26 567.08 230.24 569.29 230.2 567.79 229.82 562.09 229.94 560.21 230.34 558 230.96 557.63 232.05 555.42 232.25 553.3 233.64 551.1 233.67 547.31 234.47 544.95 233.75 541.96 232.84 536.33 232.83 536.32 232.82 536.29 229.9 533.86 228.78 534.53 226.6 533.36 224.84 533.15 224.76 532.04 224.73 532.01 224.73 532 223.75 530.86 222.14 526.47 222.13 526.47 222.12 526.44 218.44 524.41 215.32 523.97 213.7 524.25 212.76 524.21 211.46 523.77 210.79 523.4 208.41 520.91 209.68 519.68 212.11 516.35 212.38 514.17 212.42 512.93 212.76 511.98 213.11 508.31 210.41 500.15 212.72 500.78 214.59 498.32 217.41 493.1 217.32 490.78 217.25 490.21 217.89 488.8 218.9 487.71 219.95 485.34 219.58 481.63 219.56 481.62 219.56 481.59 216.79 479.4 215.2 479.58 214.17 479.12 214.25 478.05 215.66 478 219.71 478.62 221.99 480.86 226.29 480.82 227.73 477.47 227.45 473.11 227.43 473.05 227.43 473.05 226.4 469.79 224.02 466.91 221.22 465.79 221.37 464.9 226.7 462.14 226.67 462.09 226.68 462.08 224.38 458.43 222.93 456.94 222.37 456.52 222.72 449.22 222.71 449.22 222.71 449.18 218.94 449.86 217 450.17 216.82 449.93 216.64 441.5 216.51 440.23 218.79 438.25 218.91 438.09 219.1 437.92 220.36 437.54 221.17 437.33 223.76 435.44 225.42 432.71 226.25 431.9 227.78 432 229.1 433.36 229.66 435.42 229.67 435.43 229.67 435.43 235.59 436.54 235.61 436.54 236.7 436.86 238.51 438.52 240.91 438.67 240.91 438.67 240.93 438.67 242.75 437.84 244.37 436.31 244.85 433.73 244.75 433.55 246.39 433.51 249.7 433.94 249.7 433.93 249.72 433.93 251.84 430.11 251.5 428.3 252.09 428.48 255.47 428.72 256.25 428.07 256.74 429.59 255.51 431.67 255.97 434.49 258.01 435.94 260.58 437.02 264.78 437.51 264.79 437.5 264.81 437.5 267.43 435.09 267.73 434.85 268.98 433.66 269.47 433.2 269.66 432.42 272.24 431.66 274.18 431.57 275.02 432.46 278.38 434.57 278.39 434.57 278.39 434.57 279.7 434.51 281.59 434.42 282.69 434.77 283.21 435.12 283.38 435.24 283.9 436.41 284.23 437.15 285.46 439.07 286.14 442.46 289.21 444.63 290.93 445.42 292.73 447.07 292.73 447.07 293.1 447.41 296.33 448.86 296.57 448.98 298.33 448.8 298.81 449.27 300.89 450.15 301.63 450.46 305.67 450.58 307.68 447.55 310.54 446.48 313.99 445.18 315.83 444.42 317.35 444.02 321.74 443.87 325.93 444.39 328.8 444.93 328.81 444.93 328.82 444.93 329.53 444.79 329.6 444.77 331.21 447.21 333.6 448.63 335.38 451.72 335.5 451.87 335.55 451.96 337.77 454.85 338.47 455.75 339.65 455.78 339.68 456.08 339.77 457.24 338.59 459.49 338.57 463.96 338.57 463.96 338.57 463.98 340.93 464.81 341.65 467.86 342.15 468.66 343.14 475.5 343.98 480.2 342.34 480.95 342.33 480.96 342.33 480.96 342.17 481.5 341.44 483.87 337.9 486.52 337.64 487.62 335.31 492.91 333.66 498.85 333.01 504.01 332.97 504.67 332.3 506 332.13 506.35 329.26 509.94 327.25 513.81 326.87 514.54 327.23 517.19 326.77 518.15 326.85 520.63 326.88 521.59 327.36 524.49 327.92 526.7 327.99 526.92 328 526.96 328.56 528.49 330.21 533.08 331.33 536.66 332.12 539.91 332.91 542.43 333.52 543.27 333.92 544.52 334.17 545.34 334.17 545.34 334.19 545.38 337.93 546.01 338.35 547.8 337.54 548.84 337.58 551.25 336.88 551.48 335.59 551.24 334.96 551.1 335.46 546.9 330.33 546.26 327.61 547.66 326.02 551.37"/><polygon class="cls-1" points="429.19 532.56 428.12 534.81 427.39 536.01 424.21 536.8 412.27 536.87 402.7 541.55 397.12 543.24 393.76 545.85 389.78 547.48 386.7 549.59 381.08 550.51 370.01 554.13 366.77 555.49 363.06 558.08 358.62 560.39 358.14 560.39 354.69 558.23 351.1 556.7 343.43 554.68 343.44 554.61 343.51 554.5 343.67 552.35 343.75 551.59 343.75 551.33 344.27 550.79 344.59 547.43 344.58 547.39 344.58 547.39 343.28 541.76 341.07 540.25 338.67 539.85 337.27 535 336.05 531.08 334.52 526.88 333.87 525.1 333.38 523.2 333.03 521.17 333 520.23 332.98 519.45 333.35 518.67 333.47 518.41 333.26 515.54 333.8 514.47 334.26 513.55 336.67 510.54 337.17 509.91 337.42 509.46 339.03 506.55 339.66 500.27 341.03 495.24 341.74 493.64 342.37 492.52 343.3 490.37 345.07 488.85 347.3 487.88 348.04 485.75 348.88 484.75 350.68 482.64 349.22 474.51 348.26 467.89 348.13 466.6 347.47 465.55 346.9 462.79 345.81 460.96 345.26 460.03 345.51 459.55 345.76 459.07 346.86 454.8 346.85 454.8 346.86 454.79 345.9 454.12 346.26 452.64 346.26 452.63 346.26 452.63 346.19 452.27 346.2 452.25 345.89 450.75 344.71 444.63 344.66 444.69 344.68 444.66 344.65 441.11 343.88 436.64 343.8 435 344.46 433.62 343.73 430.64 343.99 430.36 343.42 426.56 341.54 425.64 340.79 424.23 340.92 422.02 341.9 418.41 370.04 418.13 370.68 417.58 377.56 418.16 382.05 417.86 383.42 418 385.1 418.48 388.51 418.21 390.03 419.87 393.16 419.81 394.48 418.62 397.12 417.32 398.16 415.99 399.91 415.92 401.38 414.52 403.69 415.04 403.81 415.15 403.55 416.62 402.65 418.38 401.56 421.47 401.8 423.91 403.23 426.06 405.87 427.9 408.22 430.31 409.83 431.84 412.34 433.71 412.12 440.43 411.63 444.13 410.63 444.36 409.92 447.66 410.18 448.44 409.45 449.51 409.65 450.23 408.83 451.15 409.96 454.16 412.13 456 414.89 455.47 416.15 454.63 414.94 459.26 414.65 464.04 415.15 465.24 412.31 467.17 412.85 470.49 413.96 472.59 415.98 475.03 419.09 477.38 419.81 478.67 418.28 480.08 417.57 482.94 418.06 492.42 415.63 496.63 415.58 498.96 416.02 501.41 417.85 503.82 418.57 503.95 417.95 507.63 417.88 508.39 417.08 508.86 416.04 511.7 416.34 513.13 416.08 514.38 417.02 516.44 418.37 518.28 420.34 522.12 420.34 522.14 421.82 525.43 424.68 527.63 427.42 529.39 427.98 529.45 429.25 531.2 429.87 531.85 429.19 532.56"/><polygon class="cls-1" points="437.25 527.71 436.54 527.96 435.59 527.75 434.1 527.35 433.38 526.41 432.5 523.77 429.53 523.43 426.9 521.57 427.07 520.97 425.82 518.04 425.01 517.72 423.71 515.18 422.53 513.62 422.64 513.13 422.56 512.79 423.01 512.53 423.71 510.89 424.58 505.47 425.15 500.73 422.17 498.36 421.79 498.29 424.31 493.92 423.77 483.52 426.27 480.49 426.16 477.4 423.81 473.19 420.39 470.71 419.52 469.72 421.38 467.78 421.68 464.92 420.86 462.94 420.95 460.62 422.49 454.55 422.29 452.04 419.08 448.64 418.89 448.6 420.59 446.63 417.65 445.92 417.83 444.1 418.03 443.03 418.49 434.08 418.82 433.41 419.2 429.79 416.11 428.83 413.93 427.25 411.25 424.46 409.82 423.16 407.94 421.84 409.25 419.02 409.86 416.32 415.58 417.7 415.72 419.2 419.9 419.15 422.6 418.47 422.68 418.47 424.01 418.41 423.63 419.38 422.52 420.78 421.8 430.49 423.06 432.54 435.62 440.91 435.71 449.35 436.49 452.37 436.67 455.07 437.87 457.45 441.34 461.28 441.72 462.27 441.87 473.57 442.3 480.25 442.3 507.61 438.52 507.8 441.34 514.17 441.53 516.47 440.98 517.57 442.08 521.61 443.48 522.6 445.12 525.05 441.08 526.11 441.31 526.8 437.25 527.71"/><polygon class="cls-1" points="460.65 523.37 451.53 524.69 451.04 522.81 447.96 518.22 447.65 518 448.2 516.9 447.76 515.67 447.47 513.52 448.45 513.47 448.45 480.06 448.02 473.35 447.86 461.08 446.64 457.91 443.17 454.27 442.74 453.41 442.62 451.61 441.87 448.86 441.76 439.3 440.92 437.03 428.12 428.52 428.52 423.14 430.45 418.88 430.81 417.49 431.6 416.66 432.88 416.93 435.74 414.52 435.66 413.32 436.38 412.97 436.71 411.77 438.06 411.38 440.35 410.15 441.73 407.71 442.13 407.26 442.29 407.18 443.5 408.71 450.84 407.49 454.66 408.27 461.75 402.22 463.39 400.44 464.27 398.77 465.23 399.81 466.45 394.41 467.17 392.83 466.88 392.53 467.24 390.92 466.38 387.55 468.93 386.92 470.45 386.84 471.81 386.17 473.2 385.08 473.63 384.91 479.29 390.19 481.77 392.89 482.63 394.69 485.07 396.59 487.19 397.28 488.34 398.19 488.44 398.34 486.58 402.28 486.47 406.41 490.73 412.65 492.01 414.03 492.17 414.9 492.5 417.64 492.62 419.04 493 421.65 494.64 424.25 494.24 425.62 493.61 425.5 491.25 426.83 489.84 428.76 488.67 431.23 488.55 433.37 489.99 435.64 489.39 437.8 488.77 439.14 488.11 439.61 487.05 439.8 484.45 441.01 482.6 443.2 482.69 445.68 481.17 447.15 479.53 449.11 478.07 451.29 478.4 454.93 477.78 457.12 477.2 458.05 472.57 458.59 470.04 458.89 470.04 458.89 469.99 458.9 468.58 467.84 468.64 471.88 468.39 475.65 467.84 477.55 468.08 480.27 467.88 485.23 467.41 490.24 468.07 491.68 468.29 493.46 468.27 496.45 469.37 499.03 469.53 499.35 469.01 500.29 469.02 507.34 469.13 508.7 468.24 510.14 468.57 514.22 469.25 516.94 469.35 517.24 468.76 519.25 468.19 522.63 460.65 523.37"/><polygon class="cls-1" points="600.87 565.29 597.3 565.32 591.73 566.09 588.9 566.04 587.01 561.19 582.36 564.5 582.22 565.37 580.72 565.44 579.99 564.83 578.24 562.83 569.45 558.68 572.34 567.04 573.39 568.01 572.3 568.91 571.77 565.42 569.85 561.32 563.44 561.32 564.82 566.68 564.92 567.88 560.98 564.14 559.76 570.58 558.68 570.78 558.28 565.12 551.35 570.83 551.3 571.38 550.1 570.84 546.31 568.28 542.03 564.41 541.49 563.04 539.96 560.32 538.58 556.86 542.49 552.37 539.27 551.63 540.69 549.46 543.23 542.89 543.66 542.63 543.36 542.53 543.98 540.86 541.58 541.92 536.4 540.15 536.56 535.58 530.74 539.03 530.27 537.64 528.57 536.63 524.63 531.66 518.8 526.69 513.22 523.03 505.09 521.36 500.61 521.38 503.2 520.03 495.23 516.74 489.4 518.55 486.62 518.8 484.43 521.76 474.57 522.14 475.14 519.51 476.03 517.4 474.75 513.45 474.61 511.76 474.99 511.19 475.32 509.42 475.22 502 475.98 501.12 476.06 498.43 474.48 495.21 474.5 493.11 474.17 490.44 473.74 489.16 474.06 485.63 474.29 480.13 474.12 478.15 474.45 477.04 474.84 472.04 474.8 468.28 475.39 464.52 475.44 464.52 480.99 463.7 483.29 460.01 484.69 455.51 484.45 452.88 485.62 451.45 489 448.19 488.91 445.73 490.58 445.43 493.73 443.24 495.14 440.14 496.71 434.66 495.09 432.1 495.12 432.06 496.31 432.28 498.39 431.51 498.94 430.66 500.98 424.71 500.74 422.29 498.96 419.46 498.51 415.19 498.08 412.6 497.03 410.2 495.87 409.16 492.73 404.59 492.75 403.73 493.89 401.31 494.4 400.51 496.07 399.46 497.14 396.56 495.97 393.98 495.69 393.71 496.38 392.22 496.12 389.35 496.43 379.71 502.95 374.21 505.37 369.88 506.7 366.58 508.07 357.74 509.08 357.37 513.36 353.79 515.92 352.74 518.24 352.04 521.38 351.5 523.48 351.73 523.51 351.73 523.51 351.73 527.98 351.9 532.32 351.44 535.55 349.24 536.24 348.95 536.94 348.82 553.33 353.87 553.35 353.87 553.37 353.88 554.86 353.65 556.43 354.61 560.76 358.82 565.71 365.93 567.67 367.94 569.93 369.31 572.88 370.02 572.9 370.02 572.91 370.02 575.28 369.8 577.04 368.73 578.52 367.51 579.72 367.19 582.09 367.34 582.1 367.33 582.12 367.33 592.51 361.65 594.88 361.99 597.65 362.63 606.01 368.08 613 371.75 618.88 373.3 624.67 374.17 636.26 374.5 636.26 374.49 636.3 374.49 644.4 365.93 646.66 364.52 649.53 363.18 653.96 362.25 655.81 361.87 666.9 360.89 677.29 361.32 683.38 362.56 689.74 364.88 693.11 367.61 699.18 368.12 699.19 368.12 699.21 368.12 700.54 367.93 704.6 367.35 704.61 367.34 704.63 367.34 706.19 363.93 708.88 361.42 711.22 360.19 713.71 358.62 716.4 357.29 717.49 356.75 718.61 356.45 721.26 355.74 724.39 353.33 725.09 353.11 725.86 352.88 728.07 352.84 737.6 366.17 738.19 369.05 739.7 376.52 739.98 378.87 740.96 384 743.88 385.06 744.39 385.25 748.05 385.68 749.34 386.27 750.13 387.25 750.72 388.34 750.75 388.5 750.7 389.14 750.22 393.64 750.13 394.34 749.14 397.18 749.66 400.85 749.62 401.29 747.01 402.78 742.42 405.77 741.8 405.98 739.6 406.07 737.27 407.1 734.47 409.25 729.21 416.45 725.32 422.88 723.65 428.91 722.36 433.19 718.88 436.48 718.19 439.16 717.46 446.89 717.31 447.43 714.73 448.29 711.1 450.67 709.47 454.4 708.82 458.17 708.02 462 707.64 464.86 707.32 465.8 706.51 466.94 705.05 468.38 704.23 468.9 699.08 469.72 698.09 471.62 694.8 477.71 694 479.12 693.94 480.84 692.36 486.86 689.13 492.16 688.85 494.63 688.83 495.31 685.58 499.08 684.55 500.4 682.45 504.02 684.19 507.02 679.1 511.14 678.13 513.11 677.86 516.79 676.98 517.81 675.5 519.05 674.1 519.95 672.63 520.52 672.48 520.54 671.6 516.94 670.36 514.54 668.71 513.41 663.76 508.57 659.03 505.76 659.03 505.76 658.99 505.74 656.33 506.25 654.61 507.86 653.77 510.26 651.27 510.32 650.92 510.26 648.37 506.27 648.3 506.17 639.65 512.39 638.78 512.71 636.49 513.98 635.77 515.44 634.11 518.65 633.65 519.49 630.36 521.65 627.31 524.2 619.61 531.79 617.75 534.4 616 538.1 612.72 552.09 608.13 559.79 608 559.57 606.63 559.27 602.91 555.38 598.56 559.14 600.87 565.29"/><polygon class="cls-1" points="639.45 581.68 640.8 580.05 636.62 575.62 634.12 577.42 633.85 577.2 627.6 576.03 628.44 579.22 624.14 577.66 623.12 577.21 622.72 574.81 621.55 573.26 621.15 571.22 621.72 566.89 618.89 565.07 617.06 564.71 616.22 564.8 615.41 563.82 613.57 562.84 616.28 558.28 617.59 555.98 618.33 554.74 621.75 540.41 623 537.69 624.17 535.99 631.28 528.95 632.98 527.61 633.89 526.75 638.38 523.7 640.36 520.16 641.22 518.4 642.16 518.07 646.58 515.03 647.41 515.92 647.49 515.93 650.81 516.5 653.93 516.48 657.12 515.91 659.11 513.78 659.37 513.05 664.55 517.98 665.68 518.82 666.69 522.94 668.16 525.76 668.18 525.77 668.19 525.79 671.08 527.02 673.93 526.58 676.66 525.59 679.01 524.15 681.13 522.41 682.68 520.74 683.94 518.55 684.2 514.99 691.83 508.81 690.89 505.83 689.67 504.14 689.59 504 695 497.63 695.13 494.21 697.88 489.69 700.01 482.1 700.13 480.87 703.14 475.33 706.5 474.79 708.67 473.4 711.05 471.15 712.62 469 713.59 466.61 714.12 463.04 714.89 459.26 715.3 456.49 716.07 454.74 717.11 454.01 721.12 452.67 722.74 450.98 723.47 448.29 724 443.58 724.09 441.4 724.41 439.75 727.81 436.55 729.6 430.56 730.84 425.69 734.37 419.84 738.7 413.77 740.17 412.57 741.04 412.18 742.51 412.12 744.77 411.49 750.13 408.1 752.18 407.02 754.81 405.14 755.51 403.33 755.89 400.76 755.47 397.8 756.07 396.07 756.73 391.51 756.97 388.19 756.64 386.29 755.7 384.59 753.24 381.26 753.22 381.26 753.22 381.26 749.61 379.63 746.34 379.34 745.79 375.56 744.26 368.01 744.26 368.01 748.4 369.06 749.01 372.51 751.78 375.76 754.76 377.4 756.1 379.83 756.89 385.43 758.95 389.27 761.2 394.18 761.57 395.26 761.68 397.49 761.39 400.02 762.26 402.06 761.13 405.06 760.51 408.13 760.31 412.44 761.28 419.02 762.99 424.62 764.62 428.55 766.59 431.98 770.02 435.99 771.02 436.97 770.57 436.98 767.93 436.41 765.45 436.29 763.81 436.75 758.71 437.28 753.6 437.05 748.08 436.24 743.65 436.42 740.42 438.88 737.93 442.16 735.05 445.6 736.33 450.43 740.83 455.14 743.12 457.89 744.26 459.67 749.74 464.66 754.6 468.61 757.15 470.13 759.74 472.02 762.98 475.31 765.9 480.38 770.6 492 772.51 493.82 772.77 493.92 772.53 494.76 772.5 494.81 772.43 494.81 771.47 496.4 769.13 500.01 766.29 502.03 765.05 503.84 764.24 506.13 761.89 511.44 760.98 513.64 759.99 514.4 756.82 519.36 754.57 524.55 754.31 525.31 751.05 526.83 749.5 527.74 746.56 530.75 745.97 533.69 747.2 536.23 749.24 539.12 750.53 539.22 750.53 545.29 749.71 546.65 749.74 547.71 749.46 548.79 749.2 551.71 749.99 553.77 750.62 554.29 751.28 554.95 752.73 566.14 753.6 568.86 754.94 570.36 758.27 572.79 760.81 575.01 761.28 575.85 761.76 578.35 759.32 578.86 761.3 583.89 763.05 587.1 768.94 593.79 779.4 604.81 781.89 605.62 782.45 605.75 785.13 608.73 785.15 608.8 784.62 610.32 785.37 613.45 785.61 614.22 785.57 614.42 785.88 617.82 786.67 620.93 787.28 622.28 786.9 622.51 785.34 625.18 784.96 628.28 785.35 630.49 781.58 627.86 777.67 626.89 772.42 626.64 771.42 626.79 768.99 625.42 766.07 624.6 764.28 625.57 763.19 625.3 762.98 625.31 760.52 623.7 758.57 623.78 757.37 622.15 756.01 622.63 753.07 620.44 749.81 621.96 745.76 621.84 733.61 621.92 724.34 621.84 724.16 621.38 721.42 619.61 718.2 619.51 712.25 619.81 707.71 619.6 704.76 619.07 700.14 618.64 695.17 618.92 694 618.85 690.22 618.9 681.02 618.5 672.56 618.61 672.96 621.68 672.58 621.68 644.21 621.67 642.99 621.17 642.64 619.23 642.89 616.48 643.93 612.08 644.38 607.81 646.06 603.52 645.07 598.83 643.83 596.31 640.63 592.64 647.41 586.46 641.27 587.04 640.72 582.79 639.45 581.68"/><polygon class="cls-1" points="634.7 643.7 636.15 642.02 637.91 641.1 640.12 635.14 642.74 631.05 642.04 627.48 642.97 627.86 672.53 627.85 672.64 649.2 644.76 649.11 642.23 649.41 641.9 649.71 641.42 649.6 640.26 647.59 636.93 647.3 635.2 647.6 635.1 647.67 633.5 646.61 633.46 646.6 634.7 643.7"/><polygon class="cls-1" points="661.76 754 660.75 751.84 654.61 744.82 646.94 738.86 650.67 735.38 644.43 731.76 642.1 730.64 639.02 729.63 637.65 729.67 636.94 727.61 635.61 725.23 634.39 723.86 635.38 721.67 634.36 718.28 631.72 717.07 637.21 715.38 634.7 710.56 631.59 707.85 633.93 702.37 626.07 704.58 625.66 705.12 624.18 704.24 621.68 699.63 620.91 698.51 620.03 696.39 619.24 695.61 619.06 695.2 620.63 694.95 621.55 693.95 621.6 693.95 623.82 693.34 625.68 691.63 630.33 685.32 631.5 677.32 631.32 675.17 633.25 675.36 636.41 676.59 641.36 680.01 642.32 675.19 652.49 671.48 643.14 667.49 639.2 668.13 634.98 666.24 634.64 665.96 637.85 664.23 638.24 661.39 638.27 657.13 637.8 655.14 639.64 655.54 641.31 656.48 644.21 655.95 644.94 655.29 678.84 655.38 678.84 655.38 678.85 655.38 678.71 629.58 678.68 625 678.73 624.69 680.92 624.66 690.13 625.06 693.83 625 695.14 625.09 700.05 624.82 703.63 625.13 705.39 625.51 712.25 625.96 718.25 625.67 719.07 625.7 717.42 629.28 716.37 632.86 716.01 637.2 716.6 640.26 717.64 642.66 717.81 643.29 715.16 645.08 718.82 649.34 721.96 649.73 721.97 649.73 721.97 649.73 724.99 648.91 733.18 646.24 735.7 645.54 740.04 646 741.89 646.42 743.46 651.1 744.48 652.09 745.39 653.59 746.2 655.49 746.22 655.62 744.43 658.38 744.02 659.37 743.35 659.88 739.67 660.25 737.97 661.91 737.02 663.96 735.25 665.67 734.2 667.78 733.13 670.95 733.29 674.01 732.96 677.57 732.4 681.7 735.05 684.45 739.29 685.12 739.92 686.07 742.2 688.67 746.17 689.71 747.19 690.61 745.6 698.61 746.68 709.2 746.57 710.77 745.45 712.49 745.45 714.66 745.82 716.33 745.29 718.73 743.83 719.42 742.01 721.77 741.66 724.02 741.11 725.5 739.75 726.8 739.75 730.61 739.83 730.69 739.35 731.25 739.33 731.25 738.95 729.43 737.84 728.03 736.17 724.57 731.43 722.2 729.5 725.55 727.87 727.25 725.13 729.32 723.86 729.43 719.77 728.71 717.14 727.83 715.94 725.75 714.74 723 712.74 719.34 710.34 717.48 707.21 715.93 704.78 715.77 701.06 717.98 698.68 719.83 698.7 722.78 699.15 725.34 699.76 726.22 699.24 728.22 693.39 729.5 691.24 727.92 688.62 728.22 685.37 729.03 681.76 727.65 678.52 729.77 678.36 732.48 679.01 737.06 678.88 738.08 678.06 740.28 676.63 745.14 681.57 746.05 681.86 746.45 680.83 749.91 682.37 752.8 684.55 754.44 685.9 755.21 685.48 756.6 684.35 758.45 684.36 758.51 682.03 756.07 679.16 755.67 673.14 759.02 671.28 760.61 670.08 762.33 669.28 760.8 666.4 757.67 661.76 754"/><polygon class="cls-1" points="686.01 778.48 679.69 773.05 679.02 771.45 674.52 767.36 675.07 765.96 675.75 764.87 676.45 764.23 679.61 762.47 682.44 765.44 684.92 766.09 686.42 765.97 689.07 766.24 691.61 763.73 692.02 760.22 691.07 759.27 691.55 757.84 692.78 756.03 693.29 752.7 690.59 750.76 688.07 749.38 687.87 749.23 689.14 748.04 688.76 744.72 687 743.04 686.33 742.1 684.56 740.48 685.23 737 685.01 735.48 689.45 734.34 692.71 735.95 704.98 733.3 705.33 729.35 705.76 727.83 705.98 725.08 705.33 723.56 704.94 722.85 706.04 722.19 706.83 722.56 707.95 723.43 709.21 725.7 710.37 728.37 712.98 732.93 718.03 734.62 723.58 735.64 727.43 735.31 731.78 732.02 732.56 731.26 732.93 731.76 732.15 733.45 734.44 736.7 738.85 737.73 742.74 736.74 744.25 735.01 746.77 732.73 746.82 728.73 746.57 728.5 747.55 725.87 747.85 724.34 749.4 723.61 750.92 721.8 752.19 716.04 751.63 714.28 752.6 712.81 752.87 709.11 751.83 698.9 753.49 690.5 753.13 687.99 751.32 686 749.02 684.08 745.55 683.18 743.64 680.52 741.77 679.27 739 678.84 739.47 674.13 739.34 671.77 739.81 670.33 740.29 669.36 742.13 667.59 742.8 666.13 745.55 665.85 747.44 664.54 749.3 662.91 749.87 661.29 750.78 659.79 752.21 657.97 752.5 655.77 752.2 654.06 750.97 650.97 749.53 648.55 749.05 647.95 747.31 642.86 744.63 640.71 741.21 639.95 735.18 639.29 724.06 642.76 723.5 640.73 722.58 638.7 722.21 636.81 722.38 634.23 723.1 631.66 724.81 628 733.6 628.08 745.69 628 751.09 628.16 752.34 627.58 753.4 628.37 754.58 628.76 755.56 630.09 757.52 630 757.78 631.54 762.5 631.48 763.75 631.78 765.88 631.71 766.78 631.22 770.04 633.24 772.78 632.81 776.5 632.95 778.99 633.57 782.02 635.67 783.92 636.82 787.2 640.07 789.16 639.12 792.75 636.92 792.69 632.92 791.48 629.81 791.22 628.3 792.03 626.71 793.51 625.73 793.76 623.3 800.37 610.33 800.72 609.64 800.41 607.46 800.9 602.85 800.84 601.8 802.69 595.78 810.77 595.01 816.23 593.98 817.98 593.54 821.18 592.07 828.26 594.25 830.67 595.23 831.67 595.06 834.34 595.2 835.1 595.08 836.61 596.64 839.83 596.08 841.18 594.92 842.47 594.32 843.94 593.93 844.76 595.35 845.38 595.7 845.51 597.53 842.69 605.65 836.18 617.45 832.5 627.88 832.52 635.07 832.2 638.95 828.65 648.44 828.07 655.75 828.98 663.19 828.19 669.56 825.63 675.93 824.2 682.21 824.78 687.71 820.89 691.88 815.17 696.71 811.61 698.05 808.02 700.04 805.24 702.45 802.36 706.57 798.53 714.34 796.74 717.41 794.62 719.8 790.83 723.27 788.7 725.75 787.86 729.29 788.48 747.09 786.94 756.54 783.54 763.06 781.37 766.15 779.54 766.95 775.52 768.13 772.77 770.22 771.66 772.27 770.36 773.38 767.68 774.69 763.09 778.85 758.37 784.74 755.59 787.67 754.97 787.98 754.52 788 753.29 787.54 751.72 787.3 751.59 786 751.04 784.27 752.95 781.43 752.31 778.69 751.03 777.12 749.03 773.97 745.45 774.4 742.92 775.91 741.2 776.7 738.91 777.15 737 778.37 733.89 777.25 732.12 777.63 729.36 779.01 728.97 782.68 728.71 784.71 727.38 785.14 725.05 786.54 722.57 784.61 721.4 783.11 719.83 781.45 717.08 781.32 717.01 781.26 714.36 778.24 714.36 778.24 714.35 778.22 713.51 777.81 712.32 777.21 711.51 777.24 709.68 777.3 707.21 778.53 705.19 780.04 702.44 781.14 698.14 782.29 697.67 783.99 697.19 785.38 695.92 785.54 694.55 785.71 694.54 785.72 694.54 785.72 691.94 789.38 691.47 788.81 690.02 786.62 689.68 785.75 689.37 785.14 689.29 782.4 686.01 778.48"/><polygon class="cls-1" points="1386.65 717.53 1384.65 718.84 1381.93 719.46 1378.11 718.05 1377.02 719.86 1372.87 716.93 1374.25 726.68 1374.46 727.53 1372.35 729.34 1372.2 730.53 1369.84 732.71 1364.47 733.07 1360.86 735.15 1358.36 737.62 1356.94 741.93 1357.28 746.51 1356 749.44 1355.67 750.84 1353.23 752.8 1351.64 755.44 1350.68 757.57 1349.62 758.79 1348.53 764.18 1347.23 767.05 1346.86 768.05 1345.67 770.26 1341.03 779.89 1339.71 781.59 1337.88 781.25 1336.69 782.37 1305.53 760.14 1305.22 759.84 1304.72 758.64 1303.58 756.99 1302.81 756.55 1303.82 754.76 1304.07 752.31 1303.23 747.14 1302.12 745.35 1218.08 698.72 1217 698.13 1214.17 696.62 1214.15 695.63 1214.74 685.2 1214.67 676.41 1215.06 672.97 1216.76 670.81 1218.12 668.2 1219.01 665.02 1219.69 663.64 1222.39 661.69 1223.01 660.3 1225.85 657.04 1227.52 652.96 1228.27 652.13 1229.52 651.12 1230.21 650.7 1233.93 649.55 1235.28 647.83 1235.65 645.85 1235.31 644.03 1236.14 642.54 1237.13 641.16 1237.96 640.33 1239.32 638.1 1239.66 635.77 1239.73 634.03 1239.4 627.03 1238.14 622.59 1237.57 619.16 1238.22 617.4 1236.37 612.32 1236.34 612.31 1236.32 612.26 1235.23 611.93 1233.81 607.9 1232.66 606.5 1232.62 606.47 1232.6 606.45 1229.97 604.84 1228.39 600.2 1228.33 600.16 1228.33 600.15 1226.8 599.27 1226.16 596.25 1226.05 595.5 1227.04 591.01 1226.8 588.29 1224.36 586.08 1224.33 586.07 1224.29 586.03 1221.2 585.01 1220.99 584.85 1221.59 582.67 1221.47 582.63 1221.48 582.58 1218.9 581.66 1216.63 576.93 1242.56 551.51 1243.04 551.75 1244.64 552.56 1244.65 552.56 1244.73 552.59 1247.24 551.64 1248.18 551.12 1252.72 552.35 1252.68 553.18 1252.84 553.83 1251.93 558.83 1252.16 563.48 1254.85 566.9 1256.34 568.55 1257.84 571.51 1259.84 573.15 1259.87 573.16 1259.94 573.22 1261.95 573.83 1280.09 574.41 1281.11 574.63 1300.59 587.03 1305.22 589.99 1309.05 592.63 1309.05 592.63 1309.15 592.69 1313.06 593.52 1318.96 593.92 1322.3 594.02 1325.36 594.89 1330.94 595.89 1334.59 596.34 1336.73 596.83 1344.12 597.48 1346.4 596.8 1349.74 593.76 1353.28 589.17 1354.34 587.27 1357.38 585.56 1369.49 580.17 1373.46 578.58 1377.77 582.29 1379.34 583.83 1379.39 583.87 1379.42 583.9 1381.39 585.1 1384.05 585.84 1387.25 585.93 1391.14 585.45 1394.42 585.25 1385.37 598.21 1385.27 598.36 1383.99 599.62 1376.5 606.99 1375.65 608.64 1375.59 608.74 1375.94 697.44 1389.15 714.4 1389.15 714.42 1386.65 717.53"/><polygon class="cls-1" points="1618.97 398.21 1617.27 401.43 1615.6 406.7 1616.59 413.45 1617.01 423.06 1616.89 423.83 1616.42 424.91 1615.96 425.15 1613.95 428.07 1612.66 428.68 1611.47 431.82 1610.7 440.39 1609.77 445.32 1609.55 451.6 1606.81 455.28 1605.43 458.76 1600.81 464.67 1597.88 470.62 1596.99 473.3 1593.05 480.01 1586.8 485.92 1584.48 493.7 1582.59 497.76 1580.33 501.61 1575.08 508.9 1572.17 514.31 1568.64 523.43 1567.55 528.98 1558.42 544.45 1548.69 557.11 1542.48 567.97 1531.74 580.16 1516.85 596.17 1497.35 615.14 1492.37 618.79 1471.04 630.49 1456.81 640.55 1449.57 647.36 1441.89 653.39 1435.83 659.08 1418 677.76 1414.42 681.19 1412.03 684.48 1410.8 685.46 1406.22 691.11 1403.67 693.76 1400.68 696.51 1398.92 699.03 1397.91 701.39 1397.2 702.27 1394.23 707.98 1393.18 709.53 1382.09 695.29 1382.08 693.01 1381.76 610.47 1389.79 602.55 1393.64 597.1 1402.07 585.13 1402.26 585.14 1403.15 583.6 1403.16 583.59 1403.17 583.57 1404.04 582.34 1405.44 580.98 1409.26 579.79 1412.22 579.53 1422.58 577.64 1424.93 576.61 1427.05 574.77 1428.02 572.52 1429.56 570.39 1431.57 568.9 1436.13 566.6 1440.85 564.52 1447.58 562.9 1450.78 562.12 1451.18 562.11 1472.84 563.35 1474.81 562.54 1498.8 536.41 1510.31 524.63 1552.69 483.69 1522.06 483.69 1452.51 460.38 1442.98 451.83 1441.94 451.75 1440.25 451.23 1438.75 449.5 1436.8 446.72 1435 443.27 1433.76 439.54 1430.7 438.27 1429.93 437.05 1427.31 433.69 1425.73 432.24 1424.79 429.27 1423.23 425.88 1422.27 424.48 1423.89 421.87 1425.98 419.41 1427.21 417.8 1427.63 416.83 1433 408.42 1433.56 407.53 1435.08 408.74 1439.3 415.74 1444.87 422.21 1452.75 428.35 1455.62 430.25 1459.3 431.76 1473.86 431.59 1483.65 426.24 1491.95 422.63 1493.88 422.11 1498.1 422.97 1503.73 423.32 1508.89 424.51 1511.9 424.16 1522.48 419.61 1528.82 415.31 1532.12 413.89 1532.71 413.89 1538.5 415.43 1546.32 414.72 1556.88 411 1559.56 410.38 1561.17 410.34 1566.71 412.01 1571.1 411.56 1579.19 409.78 1585.43 407.14 1596.69 405.23 1606.27 399.82 1608.04 397.06 1609.81 395.05 1611.68 394.56 1619.12 397.25 1618.97 398.21"/><polygon class="cls-1" points="15.16 360.07 16.19 352.95 35.38 354.37 44.44 349.93 46.31 353.97 38.57 357.33 33.67 357.85 30.74 358.07 29.4 362.23 14.65 362.69 15.16 360.07"/><polygon class="cls-1" points="1102.7 801 1099.96 794.13 1099.41 791.73 1099.57 789.19 1101.33 781.63 1101.32 781.09 1100.79 777.76 1099.8 773.61 1097.17 769.13 1096.77 766.44 1096.77 766.44 1096.77 766.44 1096.9 757.8 1096.74 755.35 1096.79 753.13 1097.11 749.74 1097.09 748.87 1095.97 747.34 1092.21 743.16 1092.15 742.07 1090.86 741.54 1089.26 738.86 1089.19 736.61 1088.18 733.38 1089.34 730.55 1092.75 727.89 1095.11 726.29 1095.24 725.78 1094.78 719.35 1095.54 717.15 1097.01 714.58 1098.7 712.25 1101.48 708.81 1103.26 708.46 1104.15 707.93 1105.43 706.86 1105.13 702.49 1105.08 698.42 1105.83 696.05 1106.14 694.04 1106.28 691.38 1107.06 688.32 1106.73 686.26 1108.89 672.44 1110.38 670.16 1110.76 669.91 1111.28 668.55 1113.86 663.3 1113.66 659.96 1113.9 656.43 1114.85 654.2 1118.08 652.83 1120.38 650.98 1121.66 648.1 1124.49 645.23 1128.26 643.96 1138.8 633.96 1143.76 628.48 1145.28 626.4 1145.31 626.02 1144.21 625 1143.22 625.01 1140.92 623.16 1140.26 622.31 1137.5 622.37 1132.72 619.78 1132.9 615.4 1134.01 611.44 1135.62 607.91 1135.56 607.77 1134.05 606.08 1133.12 604.94 1134.19 600.1 1135.63 596.74 1136.19 595.91 1136.16 595.86 1134.17 594.9 1134.95 593.5 1134.75 593.13 1131.37 593.7 1128.84 591.04 1128.39 587.69 1127.05 586.95 1121.33 584.5 1114.77 577.31 1112.82 575.35 1110.86 572.03 1109.14 570.27 1107.81 569.74 1106.11 572 1101.16 575.29 1097.63 575.46 1094.87 573.78 1092.74 573.04 1089.06 572.73 1087.81 573.45 1084.93 575.46 1082.11 576.86 1079.44 577.11 1077.73 576.52 1074.7 576.28 1070.88 573.73 1069.11 572.03 1068.58 571.31 1067.8 570.88 1065.72 570.05 1063.56 568.16 1061.9 564.87 1061.02 563.79 1056.84 560.87 1055.07 558.37 1054.82 557.88 1049.47 556.25 1049.26 556.31 1045.66 558.89 1043.33 559.56 1041.33 559.21 1038.36 558.93 1027.2 556.85 1016.22 554.18 1012.83 553.67 1011.56 554.24 1008.96 558.42 1007.59 559.99 1001.68 561.8 999.53 561.42 994.38 562.7 986.42 560.76 984.63 561 982.84 561.79 973.63 565.13 969.69 566.2 966.14 567.76 962.9 568.92 959.29 568.9 959.25 568.89 954.67 567.15 952.47 567.03 950.46 567.34 948.82 568.49 948.14 569.33 946.1 572.48 943.02 578.69 941.49 580.36 940.59 580.81 939.46 581.64 926.05 578.55 921.52 577.99 917.63 578.94 911.98 577.07 910.86 577.68 906.69 576.44 903 574.68 899.93 574.05 896.34 574.34 892.86 573.28 890.26 570.38 888.3 567.34 884.95 564.47 879.97 561.93 875.83 559.27 875.11 558.52 873.41 558.07 869.91 557.95 866.65 558.99 861.48 562.62 855.85 571.25 852.19 575.14 850.7 575.65 851.64 578.5 852 582.66 851.12 589.2 851.3 591.96 851.3 591.96 851.53 595.25 851.8 599.31 851.47 599.13 848.21 608.4 841.71 620.19 838.66 628.92 838.67 635.32 838.08 640.83 837 643.5 834.59 650.13 834.25 655.57 835.19 663.19 834.06 671.48 831.44 677.99 830.44 682.56 831.21 689.87 825 696.47 818.34 702.1 814 703.73 811.35 705.24 809.64 706.77 807.59 709.83 803.96 717.25 801.54 721.27 799 724.12 794.35 728.61 794.06 729.85 794.28 733.77 794.66 747.5 792.63 758.95 788.7 766.44 785.41 771.11 781.46 772.8 778.34 773.72 777.57 774.31 776.53 776.23 773.41 778.74 770.81 780.02 767.49 783.17 763.01 788.78 759.32 792.69 756.56 794.08 753.51 794.21 751.2 793.44 749.77 794.03 746.86 792.3 745.6 791.36 745.65 788.63 745.5 787.02 744.23 783.76 745.55 781.49 742.75 782.67 741.25 782.97 738.46 784.73 734.95 784.61 734.38 787.78 732.74 789.88 729.67 790.88 728 791.96 725.53 793.22 722.8 792.65 718.52 789.27 718.34 789.67 716.89 788.75 712.95 790.25 709.79 793.68 707 796.19 706.94 801 1102.7 801"/><polygon class="cls-1" points="1109.03 800.2 1109.31 801 1329.84 801 1330.67 798.07 1331.3 796.68 1331.86 794.86 1332.15 792.28 1333.8 788.01 1301.35 764.7 1299.95 763.35 1299.3 761.76 1297.96 761.61 1297.93 761.58 1297.89 761.58 1295.92 759.51 1296.08 756.51 1296.72 754.66 1297.79 752.46 1297.35 749.76 1212.22 702.55 1137.33 702.56 1135.76 703.55 1134.21 703.93 1135.43 705.49 1137.25 706.16 1139.17 708.58 1139.44 708.92 1140.87 711.85 1141.33 715.84 1140.83 719.55 1141.01 721.26 1142.08 723.05 1142.5 726.5 1141.77 730.34 1140.84 732.9 1138.89 734.41 1136.81 734.93 1135.56 734.73 1134.95 734.84 1133.57 735.34 1132.45 737.61 1133.44 738.5 1133.42 738.53 1133.44 738.55 1132.19 741.77 1134.03 742.18 1136.13 743.02 1138.99 743.33 1139.78 744.76 1140.62 746.25 1140.52 747.78 1140.9 748.79 1140.91 751.78 1139.83 755.53 1136.77 756.51 1137.08 757.75 1133.11 760.63 1131.29 762.29 1130.96 763.15 1130.2 765.5 1128.89 767.34 1127.38 768.66 1125.79 771.44 1124.71 773.92 1118.97 780.1 1112.87 784.09 1107.18 783.97 1105.63 791.17 1105.95 792.53 1109.03 800.2"/><polygon class="cls-1" points="678.15 87.31 669.41 84.46 660.36 81.71 654.77 83.47 652.32 83.15 649.68 81.27 647.53 79.22 646.57 76.81 644.15 73.77 641.66 65.62 641.46 60.49 641.22 59.42 628.02 39.78 627.23 37.04 627.77 33.25 629.7 29.7 635.01 26.52 638.05 24.31 638.24 23.6 638.44 19.31 637.41 17.95 636.26 14 635.12 8.63 634.99 5.13 636.59 0 203.91 0 203.91 5.05 290.43 61.95 293.34 63.87 293.38 63.87 293.91 64.24 294.15 64.4 301.41 69.38 301.7 69.58 302.35 70.03 302.33 70.03 436.63 164.85 437.38 167.3 437.76 169.71 437.54 172.21 437.63 172.96 439.05 173.95 447.08 178.17 448.56 180.1 448.89 182.12 449.3 183.03 450 183.55 451.36 184.18 453.13 184.65 460.51 185.32 463.03 186.94 465.85 190.43 466.52 190.73 470.82 191.72 475.56 192.66 479.23 193.89 483.12 195.98 485.91 198.42 485.87 205.15 486.3 206.7 487.18 208.71 487.07 211.76 485.34 213.22 484.77 214.59 484.19 215.44 485.6 216.51 486.63 216.82 487.77 216.64 541.99 205.82 542.15 205.79 543.51 205.06 570.57 180.44 582.69 169.95 686.77 104.06 683.23 96.89 678.15 87.31"/><polygon class="cls-1" points="643.06 0 642.84 0.65 641.18 5.95 641.27 8.12 642.23 12.47 643.01 15.14 644.7 17.37 644.28 24.89 643.42 28.02 638.4 31.66 634.31 34.12 633.71 35.22 633.52 36.6 633.81 37.6 646.97 56.92 647.6 59.97 647.8 64.96 649.67 70.81 652.12 74.11 652.75 75.69 654.43 77.12 660.33 75.26 671.26 78.58 681.4 81.89 683 83.29 688.72 94.08 692.88 102.53 728.18 111.17 731.49 113.12 744.52 124.69 758.78 116.93 758.76 116.82 760.81 115.83 764.49 113.83 764.52 114.03 786.11 103.59 972.66 202.04 972.66 191.56 996.37 191.57 996.37 129.34 996.29 0 643.06 0"/><polygon class="cls-1" points="1264.4 130.54 1257.03 127.63 1255.02 126.16 1253.7 124.31 1251.07 121.53 1247.56 112.2 1246.5 107.27 1246.05 98.29 1246.45 95.93 1247.45 92.57 1248.19 92.23 1246.28 90.97 1244.14 87.65 1238.99 81.77 1230.9 64.49 1226.83 56.72 1224.12 50.22 1218.48 41.38 1212.01 27.87 1209.55 24.9 1207.89 13.66 1207 10.55 1206.31 9.21 1203.72 7.18 1202.53 4.21 1200.24 0 1002.54 0 1002.54 141.04 1146.45 141.06 1148.57 136.74 1151.52 135.68 1155.4 136.4 1157.1 140 1156.79 141.04 1274.86 141.01 1268.24 135.79 1264.4 130.54"/><polygon class="cls-1" points="197.75 8.4 197.75 8.39 197.75 7.28 197.75 0.39 196.97 0 168.91 0 96.45 0.08 95.12 4.11 91.59 11.52 89.39 19.12 87.21 23.28 83.62 26.32 76.92 30.71 72.34 32.43 68.6 35.66 67.08 36.39 66.46 37.48 65.21 43.8 63.19 47.06 60.61 54.04 58.74 57.41 57.77 61.5 57.34 71.02 56.05 75.48 52.11 80.96 48.41 82.85 38.79 93.43 34.94 96.04 35.45 98.28 34.44 100.88 31.37 105.69 30.03 109.03 27.09 114.4 25.89 116.13 26.58 117.35 25.18 121.43 22.88 124.11 21.43 130.34 17.19 138 12.81 139.64 11 141.68 8.15 147.47 6.66 157.95 28.89 157.93 94.76 157.84 93.7 140.91 93.04 131.31 92.89 130.52 91.67 126.89 91.35 124.74 92 121.76 93.04 119.66 95.47 116.26 106.42 108.61 108.39 107.98 112.42 107.34 118.61 104.62 118.68 103.49 118.68 37.72 197.77 37.72 197.75 8.4"/><polygon class="cls-1" points="698.73 800.89 698.75 801 700.78 801 700.81 798.69 699.34 797.75 699.34 797.75 699.31 797.73 699.2 796.24 698.99 793.99 703.75 790.9 705.43 789.33 709.46 784.95 711.38 784.24 710.84 783.61 710.24 783.91 707.89 785.6 703.05 787.36 702.38 789 700.32 791.21 698.19 791.47 697.9 791.89 697.14 792.84 695.78 794.59 696.95 797.26 698.73 800.89"/></svg>